<?xml version="1.0" encoding="UTF-8" standalone="no"?>
<!DOCTYPE svg PUBLIC "-//W3C//DTD SVG 1.1//EN" "http://www.w3.org/Graphics/SVG/1.1/DTD/svg11.dtd">
<svg xmlns="http://www.w3.org/2000/svg" version="1.1" viewBox="0.00 0.00 701.00 157.00">
<g stroke-width="2.00" fill="none" stroke-linecap="butt">
<path stroke="#071118" vector-effect="non-scaling-stroke" d="
  M 450.30 89.21
  Q 448.31 89.27 448.52 87.51
  C 448.83 84.96 449.13 83.11 449.13 80.83
  Q 449.14 41.31 449.39 37.61
  A 1.94 1.94 0.0 0 0 447.22 35.54
  L 444.54 35.85
  A 2.18 2.18 0.0 0 0 442.70 38.64
  Q 443.84 42.44 444.01 46.51
  Q 444.34 54.27 444.43 58.05
  Q 444.46 59.20 443.64 59.72
  Q 441.54 61.04 442.56 64.00
  Q 445.07 71.30 444.12 79.22
  Q 443.61 83.49 443.53 84.31
  A 2.23 2.22 -61.3 0 0 443.98 85.87
  Q 445.05 87.24 444.57 89.27
  A 1.37 1.36 31.7 0 0 444.86 90.47
  Q 446.39 92.22 448.80 92.11"
/>
<path stroke="#071118" vector-effect="non-scaling-stroke" d="
  M 189.03 38.50
  Q 186.81 40.01 186.83 42.53
  Q 186.92 53.65 186.83 54.76
  C 186.38 60.87 186.97 65.32 187.10 72.77
  A 8.86 8.68 -53.5 0 0 187.39 74.85
  Q 188.10 77.55 188.63 81.33
  Q 188.73 82.03 190.52 85.43
  A 2.57 2.42 -86.0 0 0 191.11 86.15
  L 194.25 88.74
  A 0.73 0.73 0.0 0 1 193.77 90.04
  Q 192.49 90.01 191.23 90.79"
/>
<path stroke="#071118" vector-effect="non-scaling-stroke" d="
  M 409.76 58.36
  Q 406.98 56.65 404.08 56.75
  A 0.63 0.63 0.0 0 0 403.52 57.62
  L 405.33 62.11
  A 0.61 0.60 71.7 0 0 406.04 62.47
  L 409.81 61.45"
/>
<path stroke="#071118" vector-effect="non-scaling-stroke" d="
  M 305.59 60.75
  Q 307.34 65.98 309.71 70.99
  C 312.88 77.70 314.73 83.70 318.27 89.60
  A 0.48 0.47 -57.6 0 0 319.15 89.40
  L 320.05 80.88"
/>
</g>
<path fill="#3fc4b9" d="
  M 111.11 67.53
  A 0.60 0.60 0.0 0 1 110.51 68.17
  L 110.23 68.17
  A 0.25 0.24 84.2 0 1 109.99 67.97
  Q 106.57 48.81 91.61 38.91
  C 74.48 27.59 52.95 29.61 37.94 43.30
  Q 27.60 52.73 24.23 67.63
  A 0.64 0.63 -83.8 0 1 23.61 68.13
  L 6.67 68.13
  A 0.84 0.83 -85.8 0 1 5.85 67.17
  Q 9.46 42.50 29.19 27.74
  Q 41.07 18.85 56.69 17.78
  C 85.75 15.80 109.29 39.21 111.11 67.53
  Z"
/>
<path fill="#3fc4b9" d="
  M 530.31 90.53
  A 0.79 0.78 84.6 0 1 531.14 91.22
  L 531.17 91.53
  A 0.56 0.56 0.0 0 1 530.61 92.16
  L 514.39 92.16
  A 0.71 0.71 0.0 0 1 513.69 91.54
  L 513.65 91.20
  A 0.59 0.58 -6.8 0 1 514.17 90.55
  L 516.19 90.31
  A 2.29 2.29 0.0 0 0 518.21 88.04
  L 518.21 39.27
  A 2.57 2.57 0.0 0 0 515.85 36.71
  L 514.31 36.59
  A 0.71 0.70 -80.7 0 1 513.68 35.71
  L 513.70 35.67
  A 0.80 0.79 6.1 0 1 514.38 35.13
  L 525.87 34.11
  A 0.49 0.49 0.0 0 1 526.41 34.60
  L 526.41 60.52
  A 0.48 0.48 0.0 0 0 527.30 60.77
  C 531.60 53.75 541.01 52.17 547.56 56.47
  C 551.54 59.08 552.46 63.73 552.44 68.97
  Q 552.39 83.30 552.41 87.00
  Q 552.44 90.71 556.31 90.40
  A 0.92 0.91 84.2 0 1 557.30 91.21
  L 557.33 91.50
  A 0.60 0.60 0.0 0 1 556.73 92.17
  L 540.83 92.17
  A 0.67 0.66 -3.4 0 1 540.17 91.59
  L 540.13 91.21
  A 0.64 0.63 83.3 0 1 540.69 90.50
  L 542.76 90.25
  A 1.85 1.85 0.0 0 0 544.40 88.41
  Q 544.46 75.64 544.34 65.76
  C 544.32 63.18 543.20 59.28 540.70 57.89
  C 535.14 54.79 529.80 58.63 527.59 63.64
  Q 526.32 66.49 526.36 71.64
  Q 526.39 75.33 526.47 88.09
  A 1.90 1.87 19.4 0 0 527.17 89.53
  Q 528.56 90.63 530.31 90.53
  Z"
/>
<path fill="#020507" d="
  M 450.30 89.21
  Q 448.31 89.27 448.52 87.51
  C 448.83 84.96 449.13 83.11 449.13 80.83
  Q 449.14 41.31 449.39 37.61
  A 1.94 1.94 0.0 0 0 447.22 35.54
  L 444.54 35.85
  A 2.18 2.18 0.0 0 0 442.70 38.64
  Q 443.84 42.44 444.01 46.51
  Q 444.34 54.27 444.43 58.05
  Q 444.46 59.20 443.64 59.72
  Q 441.54 61.04 442.56 64.00
  Q 445.07 71.30 444.12 79.22
  Q 443.61 83.49 443.53 84.31
  A 2.23 2.22 -61.3 0 0 443.98 85.87
  Q 445.05 87.24 444.57 89.27
  A 1.37 1.36 31.7 0 0 444.86 90.47
  Q 446.39 92.22 448.80 92.11
  L 443.20 92.11
  A 0.65 0.64 -0.0 0 1 442.55 91.47
  L 442.55 86.37
  A 0.34 0.34 0.0 0 0 441.91 86.20
  C 439.70 90.24 436.09 92.52 431.33 92.74
  C 420.12 93.26 413.38 85.38 412.97 74.28
  Q 412.63 65.09 418.77 59.04
  C 425.15 52.76 436.38 51.77 441.75 60.02
  A 0.24 0.24 0.0 0 0 442.19 59.88
  Q 442.09 56.49 442.22 40.95
  Q 442.26 36.43 438.31 36.73
  A 0.82 0.82 0.0 0 1 437.43 35.91
  L 437.43 35.55
  A 0.70 0.70 0.0 0 1 438.17 34.85
  Q 443.86 35.17 449.63 33.91
  A 0.48 0.47 84.1 0 1 450.20 34.38
  L 450.30 89.21
  Z
  M 432.00 90.78
  C 440.64 90.82 442.43 81.10 442.46 73.53
  C 442.49 65.97 440.79 56.23 432.15 56.20
  C 423.51 56.16 421.72 65.88 421.69 73.45
  C 421.66 81.01 423.37 90.75 432.00 90.78
  Z"
/>
<path fill="#3fc4b9" d="
  M 467.33 91.32
  L 467.34 91.28
  A 0.84 0.84 0.0 0 1 468.18 90.47
  Q 472.13 90.50 472.10 87.02
  Q 471.80 48.26 472.06 40.46
  Q 472.20 36.23 468.16 36.49
  A 0.74 0.73 88.6 0 1 467.38 35.74
  L 467.38 35.71
  A 0.82 0.81 -89.3 0 1 468.20 34.90
  Q 475.51 34.96 488.14 34.86
  C 490.65 34.84 493.15 35.33 495.49 35.75
  C 503.06 37.13 508.13 41.59 509.90 49.28
  Q 510.88 53.57 508.62 58.25
  C 503.75 68.36 491.53 69.26 481.47 68.45
  A 0.73 0.73 0.0 0 0 480.68 69.17
  Q 480.61 78.93 480.59 86.83
  C 480.58 90.03 482.79 90.46 485.43 90.66
  A 0.73 0.73 0.0 0 1 486.11 91.39
  L 486.11 91.71
  A 0.45 0.45 0.0 0 1 485.66 92.16
  L 468.13 92.15
  A 0.80 0.80 0.0 0 1 467.33 91.32
  Z
  M 480.69 37.89
  L 480.55 65.53
  A 1.30 1.30 0.0 0 0 481.84 66.83
  L 488.55 66.87
  A 13.77 12.45 -89.7 0 0 501.07 53.16
  L 501.09 50.46
  A 13.77 12.45 -89.7 0 0 488.71 36.63
  L 482.00 36.59
  A 1.30 1.30 0.0 0 0 480.69 37.89
  Z"
/>
<path fill="#0c1c28" d="
  M 189.03 38.50
  Q 186.81 40.01 186.83 42.53
  Q 186.92 53.65 186.83 54.76
  C 186.38 60.87 186.97 65.32 187.10 72.77
  A 8.86 8.68 -53.5 0 0 187.39 74.85
  Q 188.10 77.55 188.63 81.33
  Q 188.73 82.03 190.52 85.43
  A 2.57 2.42 -86.0 0 0 191.11 86.15
  L 194.25 88.74
  A 0.73 0.73 0.0 0 1 193.77 90.04
  Q 192.49 90.01 191.23 90.79
  C 182.51 87.16 179.89 79.31 179.96 70.35
  Q 180.14 48.94 179.96 40.47
  C 179.90 37.69 179.00 36.59 176.31 36.67
  A 0.86 0.86 0.0 0 1 175.43 35.84
  L 175.43 35.77
  A 0.84 0.84 0.0 0 1 176.27 34.90
  L 192.76 34.90
  A 0.84 0.83 -90.0 0 1 193.59 35.74
  L 193.59 36.04
  A 0.51 0.51 0.0 0 1 193.11 36.55
  Q 189.37 36.71 189.03 38.50
  Z"
/>
<path fill="#020507" d="
  M 191.23 90.79
  Q 192.49 90.01 193.77 90.04
  A 0.73 0.73 0.0 0 0 194.25 88.74
  L 191.11 86.15
  A 2.57 2.42 -86.0 0 1 190.52 85.43
  Q 188.73 82.03 188.63 81.33
  Q 188.10 77.55 187.39 74.85
  A 8.86 8.68 -53.5 0 1 187.10 72.77
  C 186.97 65.32 186.38 60.87 186.83 54.76
  Q 186.92 53.65 186.83 42.53
  Q 186.81 40.01 189.03 38.50
  Q 188.77 63.10 188.91 74.56
  C 189.05 85.82 196.88 92.29 207.86 90.32
  Q 215.52 88.94 218.96 81.41
  Q 220.67 77.66 220.61 68.37
  Q 220.49 48.23 220.52 43.09
  C 220.54 39.16 219.72 36.75 215.61 36.58
  A 0.79 0.79 0.0 0 1 214.86 35.79
  L 214.86 35.49
  A 0.59 0.58 -90.0 0 1 215.44 34.90
  L 227.50 34.90
  A 0.73 0.72 -90.0 0 1 228.22 35.63
  L 228.22 35.99
  A 0.55 0.55 0.0 0 1 227.68 36.54
  Q 222.77 36.68 222.73 41.76
  Q 222.63 58.91 222.72 69.24
  Q 222.80 77.76 221.21 81.52
  C 217.07 91.27 209.27 93.31 199.51 92.76
  Q 194.87 92.50 191.23 90.79
  Z"
/>
<path fill="#0c1c28" d="
  M 450.30 89.21
  Q 452.67 90.52 454.13 90.46
  A 0.87 0.87 0.0 0 1 455.03 91.33
  L 455.03 91.61
  A 0.48 0.48 0.0 0 1 454.55 92.09
  L 448.80 92.11
  Q 446.39 92.22 444.86 90.47
  A 1.37 1.36 31.7 0 1 444.57 89.27
  Q 445.05 87.24 443.98 85.87
  A 2.23 2.22 -61.3 0 1 443.53 84.31
  Q 443.61 83.49 444.12 79.22
  Q 445.07 71.30 442.56 64.00
  Q 441.54 61.04 443.64 59.72
  Q 444.46 59.20 444.43 58.05
  Q 444.34 54.27 444.01 46.51
  Q 443.84 42.44 442.70 38.64
  A 2.18 2.18 0.0 0 1 444.54 35.85
  L 447.22 35.54
  A 1.94 1.94 0.0 0 1 449.39 37.61
  Q 449.14 41.31 449.13 80.83
  C 449.13 83.11 448.83 84.96 448.52 87.51
  Q 448.31 89.27 450.30 89.21
  Z"
/>
<circle fill="#3fc4b9" cx="642.31" cy="42.82" r="5.07"/>
<path fill="#020507" d="
  M 409.76 58.36
  Q 406.98 56.65 404.08 56.75
  A 0.63 0.63 0.0 0 0 403.52 57.62
  L 405.33 62.11
  A 0.61 0.60 71.7 0 0 406.04 62.47
  L 409.81 61.45
  Q 407.72 65.55 403.86 63.45
  A 2.61 2.60 -75.7 0 1 402.50 61.16
  L 402.50 58.81
  A 1.66 1.65 -5.7 0 0 400.51 57.19
  C 396.26 58.06 394.08 62.82 393.23 66.51
  Q 392.53 69.51 392.62 74.03
  Q 392.79 82.47 392.65 86.35
  C 392.51 90.16 394.17 90.56 397.41 90.57
  A 0.74 0.73 0.4 0 1 398.14 91.30
  L 398.14 91.33
  A 0.75 0.75 0.0 0 1 397.39 92.10
  L 380.58 92.15
  A 0.78 0.77 89.6 0 1 379.80 91.37
  L 379.80 91.29
  A 0.74 0.74 0.0 0 1 380.58 90.55
  Q 383.02 90.67 384.25 89.00
  A 1.71 1.66 63.9 0 0 384.59 87.95
  Q 384.49 73.38 384.54 60.53
  Q 384.54 58.67 382.65 57.64
  A 0.60 0.58 -30.0 0 0 382.37 57.57
  L 380.41 57.47
  A 0.66 0.65 10.1 0 1 379.82 56.63
  L 379.83 56.60
  A 1.01 1.00 9.0 0 1 380.82 55.89
  Q 386.22 56.01 391.80 54.28
  A 0.58 0.58 0.0 0 1 392.55 54.83
  L 392.55 61.80
  A 0.32 0.31 -28.6 0 0 393.13 61.97
  C 393.85 60.85 394.46 58.98 395.46 57.82
  C 399.09 53.55 407.21 51.97 409.76 58.36
  Z"
/>
<path fill="#3fc4b9" d="
  M 624.66 64.71
  C 623.42 59.43 619.57 55.45 613.53 55.87
  Q 610.33 56.10 608.96 57.62
  C 605.42 61.56 608.18 65.50 612.18 67.26
  Q 622.91 72.00 622.94 72.01
  C 632.91 77.46 629.71 89.96 619.56 92.30
  Q 611.92 94.06 604.37 90.39
  A 0.63 0.62 -39.8 0 0 603.89 90.35
  Q 603.16 90.56 602.70 91.23
  A 0.97 0.97 0.0 0 1 600.94 90.67
  L 600.94 81.00
  A 0.76 0.76 0.0 0 1 601.70 80.24
  L 601.98 80.24
  A 0.95 0.95 0.0 0 1 602.91 80.99
  C 604.39 87.95 609.54 91.80 616.43 91.03
  C 618.86 90.76 620.97 89.74 621.97 87.42
  C 624.02 82.66 620.53 79.61 616.34 77.91
  C 611.30 75.86 604.61 73.98 602.07 69.12
  A 3.74 3.72 26.4 0 1 601.69 68.00
  C 599.38 54.96 613.33 51.46 622.69 56.01
  A 1.05 1.05 0.0 0 0 623.60 56.03
  L 625.68 55.12
  A 0.47 0.46 -12.1 0 1 626.34 55.54
  L 626.34 64.51
  A 0.85 0.85 0.0 0 1 624.66 64.71
  Z"
/>
<path fill="#3fc4b9" d="
  M 695.45 73.54
  A 19.60 19.60 0.0 0 1 675.85 93.14
  A 19.60 19.60 0.0 0 1 656.25 73.54
  A 19.60 19.60 0.0 0 1 675.85 53.94
  A 19.60 19.60 0.0 0 1 695.45 73.54
  Z
  M 675.75 55.83
  C 666.90 55.93 665.22 65.93 665.31 73.68
  C 665.40 81.44 667.31 91.39 676.17 91.29
  C 685.02 91.19 686.70 81.19 686.60 73.44
  C 686.51 65.68 684.61 55.73 675.75 55.83
  Z"
/>
<path fill="#020507" d="
  M 244.38 87.31
  A 0.27 0.26 25.7 0 0 243.91 87.47
  L 243.91 106.65
  A 2.25 2.24 4.7 0 0 245.79 108.86
  Q 247.27 109.10 247.81 109.27
  A 0.85 0.85 0.0 0 1 247.50 110.93
  Q 246.24 110.83 231.67 110.90
  A 0.77 0.76 -85.8 0 1 230.92 110.02
  Q 231.02 109.37 231.49 109.25
  Q 231.64 109.21 234.05 108.69
  A 2.15 2.14 84.0 0 0 235.75 106.59
  L 235.75 60.31
  A 2.88 2.88 0.0 0 0 232.97 57.43
  Q 231.96 57.40 231.36 57.10
  A 0.62 0.62 0.0 0 1 231.63 55.93
  Q 237.28 55.91 242.95 54.37
  A 0.79 0.79 0.0 0 1 243.94 55.13
  L 243.94 60.22
  A 0.26 0.26 0.0 0 0 244.42 60.36
  C 247.97 54.59 254.97 53.00 261.17 54.97
  C 271.83 58.37 275.43 71.11 271.79 81.04
  Q 268.00 91.37 257.81 92.61
  C 252.05 93.32 248.03 91.85 244.38 87.31
  Z
  M 254.07 56.36
  C 245.44 56.34 243.68 66.06 243.66 73.62
  C 243.64 81.17 245.36 90.90 253.99 90.92
  C 262.62 90.94 264.39 81.22 264.41 73.67
  C 264.43 66.11 262.70 56.38 254.07 56.36
  Z"
/>
<path fill="#020507" d="
  M 361.71 87.10
  A 0.52 0.52 0.0 0 0 360.78 86.91
  Q 356.47 92.84 349.01 92.90
  C 344.52 92.94 339.46 90.56 338.57 85.79
  C 337.26 78.70 341.95 75.04 348.06 72.88
  Q 354.15 70.74 360.52 70.61
  A 0.86 0.85 -88.5 0 0 361.35 69.82
  Q 361.72 64.64 360.26 60.72
  C 358.07 54.79 350.61 55.08 346.94 58.70
  A 0.88 0.86 56.7 0 0 346.75 59.66
  L 348.35 63.63
  A 1.70 1.69 41.5 0 1 348.42 64.69
  C 346.78 71.31 336.07 65.30 343.07 58.57
  Q 347.89 53.94 355.48 54.18
  Q 364.30 54.46 367.74 60.99
  Q 369.37 64.08 369.12 73.27
  Q 369.06 75.70 369.12 86.27
  C 369.14 88.73 370.20 90.46 372.85 89.56
  A 0.97 0.92 -84.7 0 0 373.40 89.08
  L 374.56 86.69
  A 0.59 0.59 0.0 0 1 375.67 87.00
  Q 375.18 91.91 370.16 92.62
  Q 363.23 93.59 361.71 87.10
  Z
  M 360.64 72.20
  C 353.50 72.05 345.49 74.96 346.23 83.80
  C 346.52 87.26 348.89 90.08 352.70 89.87
  Q 358.36 89.55 361.28 83.59
  A 0.96 0.92 -32.6 0 0 361.38 83.17
  L 361.38 72.96
  A 0.76 0.76 0.0 0 0 360.64 72.20
  Z"
/>
<path fill="#3fc4b9" d="
  M 633.81 91.59
  L 633.75 91.13
  A 0.58 0.58 0.0 0 1 634.26 90.49
  L 636.68 90.21
  A 2.25 2.24 86.7 0 0 638.66 87.98
  L 638.66 59.37
  A 2.08 2.07 90.0 0 0 636.59 57.29
  L 634.73 57.29
  A 0.55 0.55 0.0 0 1 634.18 56.80
  L 634.13 56.38
  A 0.33 0.33 0.0 0 1 634.42 56.01
  L 646.17 54.63
  A 0.56 0.55 -3.8 0 1 646.79 55.17
  Q 647.05 67.95 646.80 86.25
  C 646.76 88.40 647.58 90.36 649.81 90.45
  Q 650.88 90.50 651.51 90.68
  A 0.74 0.74 0.0 0 1 651.31 92.13
  L 634.42 92.13
  A 0.61 0.61 0.0 0 1 633.81 91.59
  Z"
/>
<path fill="#020507" d="
  M 305.59 60.75
  Q 307.34 65.98 309.71 70.99
  C 312.88 77.70 314.73 83.70 318.27 89.60
  A 0.48 0.47 -57.6 0 0 319.15 89.40
  L 320.05 80.88
  Q 320.31 81.55 320.64 81.73
  Q 321.13 82.00 321.38 81.26
  Q 322.96 76.51 329.17 60.39
  C 330.25 57.60 327.77 56.69 325.55 56.63
  A 0.78 0.77 -89.2 0 1 324.80 55.85
  L 324.80 55.53
  A 0.67 0.67 0.0 0 1 325.47 54.86
  L 335.82 54.86
  A 0.70 0.70 0.0 0 1 336.52 55.56
  L 336.52 55.84
  A 0.95 0.95 0.0 0 1 335.67 56.77
  Q 332.48 57.09 331.36 59.89
  Q 325.90 73.57 319.12 91.73
  A 1.44 1.44 0.0 0 1 316.44 91.77
  L 306.23 66.47
  A 0.37 0.37 0.0 0 0 305.54 66.48
  L 295.95 91.70
  A 1.50 1.50 0.0 0 1 293.16 91.72
  Q 291.46 87.43 280.27 59.72
  Q 279.04 56.67 276.24 56.70
  A 0.86 0.86 0.0 0 1 275.37 55.84
  L 275.37 55.57
  A 0.68 0.68 0.0 0 1 276.05 54.89
  L 292.20 54.89
  A 0.73 0.72 -10.5 0 1 292.88 55.35
  L 293.02 55.69
  A 0.71 0.71 0.0 0 1 292.36 56.67
  L 290.74 56.67
  A 2.22 2.22 0.0 0 0 288.68 59.72
  L 297.34 81.17
  A 0.39 0.39 0.0 0 0 298.07 81.16
  L 305.59 60.75
  Z"
/>
<path fill="#0c1c28" d="
  M 320.05 80.88
  L 319.15 89.40
  A 0.48 0.47 -57.6 0 1 318.27 89.60
  C 314.73 83.70 312.88 77.70 309.71 70.99
  Q 307.34 65.98 305.59 60.75
  L 307.52 55.48
  A 1.31 1.31 0.0 0 1 309.97 55.45
  L 320.05 80.88
  Z"
/>
<path fill="#3fc4b9" d="
  M 557.41 54.87
  L 573.93 54.87
  A 0.66 0.66 0.0 0 1 574.59 55.53
  L 574.59 55.93
  A 0.72 0.72 0.0 0 1 573.87 56.65
  L 572.70 56.65
  A 2.01 2.00 78.1 0 0 570.87 59.46
  L 580.96 82.31
  A 0.30 0.29 -45.5 0 0 581.50 82.30
  Q 585.90 71.93 590.44 60.74
  C 591.64 57.79 589.51 56.60 586.94 56.54
  A 0.75 0.75 0.0 0 1 586.20 55.79
  L 586.20 55.48
  A 0.63 0.63 0.0 0 1 586.83 54.85
  L 597.75 54.85
  A 0.68 0.68 0.0 0 1 598.43 55.53
  L 598.43 55.87
  A 0.76 0.76 0.0 0 1 597.72 56.63
  Q 594.07 56.84 592.98 59.49
  Q 579.77 91.58 573.86 105.10
  C 571.51 110.45 564.81 113.61 560.37 108.26
  A 2.52 2.49 -69.8 0 1 559.83 107.07
  Q 559.15 103.03 562.51 101.68
  Q 565.24 100.59 567.04 103.17
  A 1.84 1.81 -62.9 0 1 567.37 104.22
  L 567.37 107.60
  A 0.60 0.60 0.0 0 0 568.22 108.15
  C 572.49 106.25 575.73 96.87 577.00 92.65
  A 1.24 1.22 -49.9 0 0 576.93 91.78
  Q 569.42 76.28 562.18 59.84
  Q 560.64 56.32 557.50 56.59
  A 0.74 0.73 -2.5 0 1 556.70 55.86
  L 556.70 55.57
  A 0.71 0.70 0.0 0 1 557.41 54.87
  Z"
/>
<path fill="#0c1c28" d="
  M 409.76 58.36
  Q 410.50 59.90 409.81 61.45
  L 406.04 62.47
  A 0.61 0.60 71.7 0 1 405.33 62.11
  L 403.52 57.62
  A 0.63 0.63 0.0 0 1 404.08 56.75
  Q 406.98 56.65 409.76 58.36
  Z"
/>
<path fill="#0c1c28" d="
  M 149.48 76.33
  A 0.94 0.94 0.0 0 1 150.41 77.38
  Q 148.24 97.00 135.45 110.89
  C 113.83 134.38 77.43 133.83 57.10 108.65
  Q 46.31 95.29 45.21 76.70
  A 0.48 0.48 0.0 0 1 45.69 76.19
  L 46.02 76.19
  A 0.41 0.41 0.0 0 1 46.42 76.51
  C 47.00 79.17 47.37 81.95 48.28 84.26
  Q 56.01 103.91 75.69 111.29
  C 86.34 115.28 98.92 114.36 109.22 109.04
  Q 124.20 101.32 130.47 85.01
  Q 130.99 83.64 132.66 76.82
  A 0.64 0.64 0.0 0 1 133.28 76.33
  L 149.48 76.33
  Z"
/>
<path fill="#020507" d="
  M 270.68 131.01
  Q 270.75 131.01 270.94 130.97
  A 0.13 0.09 -73.9 0 0 271.01 130.91
  L 274.54 123.65
  A 0.87 0.86 -32.2 0 1 276.19 124.02
  L 276.19 133.66
  A 0.68 0.68 0.0 0 1 275.48 134.34
  L 275.23 134.33
  A 0.41 0.41 0.0 0 1 274.83 133.92
  L 274.83 127.08
  A 0.33 0.33 0.0 0 0 274.20 126.94
  L 271.21 133.02
  A 0.10 0.10 0.0 0 1 271.17 133.07
  Q 270.96 133.27 270.65 133.27
  Q 270.35 133.26 270.14 133.06
  A 0.10 0.10 0.0 0 1 270.10 133.01
  L 267.24 126.87
  A 0.33 0.33 0.0 0 0 266.60 127.00
  L 266.47 133.84
  A 0.41 0.41 0.0 0 1 266.06 134.24
  L 265.81 134.24
  A 0.68 0.68 0.0 0 1 265.11 133.55
  L 265.31 123.91
  A 0.87 0.86 33.3 0 1 266.96 123.57
  L 270.35 130.90
  A 0.13 0.09 75.1 0 0 270.42 130.96
  Q 270.60 131.01 270.68 131.01
  Z"
/>
<path fill="#020507" d="
  M 289.3194 122.9953
  A 5.74 5.47 -82.8 0 1 294.0269 129.3756
  A 5.74 5.47 -82.8 0 1 287.8806 134.3847
  A 5.74 5.47 -82.8 0 1 283.1731 128.0044
  A 5.74 5.47 -82.8 0 1 289.3194 122.9953
  Z
  M 289.2881 124.3263
  A 4.42 4.06 -81.7 0 0 284.6325 128.1139
  A 4.42 4.06 -81.7 0 0 288.0119 133.0737
  A 4.42 4.06 -81.7 0 0 292.6675 129.2861
  A 4.42 4.06 -81.7 0 0 289.2881 124.3263
  Z"
/>
<path fill="#020507" d="
  M 386.76 123.25
  Q 388.50 123.13 390.28 123.09
  A 0.75 0.74 82.6 0 1 391.02 123.66
  L 391.05 123.73
  A 0.49 0.49 0.0 0 1 390.58 124.39
  L 388.16 124.37
  A 0.69 0.68 -89.6 0 0 387.47 125.06
  L 387.47 133.76
  A 0.37 0.24 66.9 0 1 387.45 133.89
  Q 387.30 134.33 386.76 134.33
  Q 386.13 134.33 385.99 133.88
  A 0.37 0.24 -66.4 0 1 385.97 133.75
  L 386.04 125.05
  A 0.69 0.68 -89.9 0 0 385.36 124.36
  L 382.94 124.36
  A 0.49 0.49 0.0 0 1 382.47 123.70
  L 382.50 123.63
  A 0.75 0.74 -82.1 0 1 383.25 123.06
  Q 385.02 123.12 386.76 123.25
  Z"
/>
<path fill="#020507" d="
  M 522.22 128.62
  Q 522.26 124.32 522.32 123.83
  A 0.88 0.87 -85.9 0 1 523.20 123.06
  L 529.04 123.12
  A 0.50 0.50 0.0 0 1 529.52 123.62
  L 529.52 123.94
  A 0.51 0.51 0.0 0 1 529.01 124.45
  L 524.42 124.40
  A 0.80 0.79 -89.4 0 0 523.62 125.19
  L 523.60 127.25
  A 0.78 0.78 0.0 0 0 524.44 128.03
  Q 528.87 127.69 528.67 128.68
  Q 528.85 129.68 524.43 129.24
  A 0.78 0.78 0.0 0 0 523.57 130.01
  L 523.55 132.07
  A 0.80 0.79 -89.5 0 0 524.34 132.88
  L 528.92 132.92
  A 0.51 0.51 0.0 0 1 529.43 133.43
  L 529.43 133.75
  A 0.50 0.50 0.0 0 1 528.93 134.25
  L 523.10 134.20
  A 0.88 0.87 87.0 0 1 522.23 133.40
  Q 522.17 132.91 522.22 128.62
  Z"
/>
<path fill="#020507" d="
  M 539.68 134.30
  Q 539.05 134.30 538.91 133.85
  A 0.37 0.24 -66.2 0 1 538.89 133.73
  L 538.99 125.11
  A 0.68 0.67 -89.8 0 0 538.31 124.42
  L 535.92 124.41
  A 0.49 0.49 0.0 0 1 535.46 123.75
  L 535.49 123.68
  A 0.74 0.73 -81.9 0 1 536.23 123.12
  Q 537.99 123.19 539.71 123.32
  Q 541.43 123.21 543.20 123.17
  A 0.74 0.73 82.7 0 1 543.93 123.74
  L 543.96 123.81
  A 0.49 0.49 0.0 0 1 543.49 124.46
  L 541.09 124.44
  A 0.68 0.67 -89.4 0 0 540.41 125.12
  L 540.38 133.74
  A 0.37 0.24 67.0 0 1 540.36 133.86
  Q 540.21 134.31 539.68 134.30
  Z"
/>
<path fill="#020507" d="
  M 553.53 134.26
  Q 552.99 134.26 552.85 133.81
  A 0.37 0.24 -66.6 0 1 552.83 133.69
  L 552.87 125.06
  A 0.68 0.67 89.8 0 0 552.19 124.37
  L 549.79 124.38
  A 0.49 0.49 0.0 0 1 549.32 123.73
  L 549.35 123.66
  A 0.74 0.74 0.0 0 1 550.09 123.09
  Q 551.85 123.15 553.57 123.27
  Q 555.30 123.15 557.06 123.09
  A 0.74 0.74 0.0 0 1 557.80 123.66
  L 557.83 123.73
  A 0.49 0.49 0.0 0 1 557.37 124.38
  L 554.97 124.37
  A 0.68 0.67 -89.8 0 0 554.28 125.06
  L 554.32 133.69
  A 0.37 0.24 66.6 0 1 554.30 133.81
  Q 554.16 134.26 553.53 134.26
  Z"
/>
<path fill="#020507" d="
  M 564.16 128.60
  Q 564.19 124.30 564.25 123.81
  A 0.88 0.87 -86.0 0 1 565.14 123.03
  L 570.98 123.08
  A 0.50 0.50 0.0 0 1 571.47 123.59
  L 571.47 123.91
  A 0.51 0.51 0.0 0 1 570.95 124.41
  L 566.36 124.38
  A 0.80 0.79 -89.5 0 0 565.56 125.17
  L 565.54 127.23
  A 0.79 0.78 -2.0 0 0 566.39 128.02
  Q 570.82 127.66 570.62 128.66
  Q 570.80 129.66 566.38 129.23
  A 0.79 0.78 2.9 0 0 565.52 130.00
  L 565.50 132.06
  A 0.80 0.79 -89.6 0 0 566.29 132.87
  L 570.89 132.90
  A 0.51 0.51 0.0 0 1 571.39 133.42
  L 571.39 133.74
  A 0.50 0.50 0.0 0 1 570.90 134.23
  L 565.05 134.19
  A 0.88 0.87 86.9 0 1 564.18 133.40
  Q 564.12 132.91 564.16 128.60
  Z"
/>
<path fill="#020507" d="
  M 304.44 131.61
  Q 304.67 131.61 304.85 131.50
  C 304.97 131.44 307.55 124.64 308.02 123.61
  A 0.64 0.63 12.2 0 1 308.60 123.24
  L 308.97 123.24
  A 0.35 0.35 0.0 0 1 309.30 123.72
  Q 306.39 131.42 305.34 133.83
  Q 305.17 134.22 304.55 134.22
  Q 303.88 134.22 303.71 133.83
  Q 302.65 131.43 299.70 123.74
  A 0.35 0.35 0.0 0 1 300.03 123.26
  L 300.40 123.26
  A 0.64 0.63 -12.5 0 1 300.98 123.63
  C 301.46 124.65 304.07 131.44 304.19 131.51
  Q 304.37 131.61 304.44 131.61
  Z"
/>
<path fill="#020507" d="
  M 315.84 128.67
  Q 315.83 124.39 315.88 123.90
  A 0.88 0.87 -86.7 0 1 316.75 123.11
  L 322.58 123.09
  A 0.50 0.50 0.0 0 1 323.07 123.59
  L 323.07 123.91
  A 0.51 0.51 0.0 0 1 322.56 124.42
  L 317.98 124.44
  A 0.80 0.79 89.8 0 0 317.20 125.24
  L 317.21 127.29
  A 0.78 0.78 0.0 0 0 318.06 128.06
  Q 322.47 127.65 322.29 128.65
  Q 322.48 129.64 318.06 129.27
  A 0.78 0.78 0.0 0 0 317.22 130.05
  L 317.23 132.10
  A 0.80 0.79 89.8 0 0 318.02 132.90
  L 322.60 132.88
  A 0.51 0.51 0.0 0 1 323.11 133.38
  L 323.11 133.70
  A 0.50 0.50 0.0 0 1 322.62 134.20
  L 316.80 134.23
  A 0.88 0.87 86.2 0 1 315.92 133.45
  Q 315.86 132.96 315.84 128.67
  Z"
/>
<path fill="#020507" d="
  M 346.92 129.01
  C 347.32 129.48 347.97 129.82 348.08 130.59
  C 348.69 134.70 343.82 134.36 340.40 134.24
  A 0.61 0.60 -89.0 0 1 339.82 133.63
  L 339.82 124.16
  A 0.75 0.74 -5.1 0 1 340.44 123.43
  Q 342.58 123.07 345.02 123.36
  C 347.59 123.66 348.22 125.95 346.85 127.99
  A 0.84 0.83 41.6 0 0 346.92 129.01
  Z
  M 341.29 125.04
  L 341.27 127.28
  A 0.65 0.65 0.0 0 0 341.92 127.94
  L 344.34 127.95
  A 1.83 1.66 0.4 0 0 346.18 126.31
  L 346.18 126.09
  A 1.83 1.66 0.4 0 0 344.36 124.41
  L 341.94 124.40
  A 0.65 0.65 0.0 0 0 341.29 125.04
  Z
  M 341.27 129.92
  L 341.27 132.24
  A 0.66 0.66 0.0 0 0 341.92 132.90
  L 344.72 132.91
  A 2.06 1.75 0.2 0 0 346.79 131.17
  L 346.79 131.03
  A 2.06 1.75 0.2 0 0 344.74 129.27
  L 341.94 129.26
  A 0.66 0.66 0.0 0 0 341.27 129.92
  Z"
/>
<path fill="#020507" d="
  M 355.02 128.68
  Q 355.01 124.39 355.07 123.90
  A 0.88 0.87 -86.5 0 1 355.94 123.12
  L 361.77 123.11
  A 0.50 0.50 0.0 0 1 362.26 123.61
  L 362.26 123.93
  A 0.51 0.51 0.0 0 1 361.76 124.44
  L 357.17 124.45
  A 0.80 0.79 89.9 0 0 356.39 125.25
  L 356.39 127.30
  A 0.78 0.78 0.0 0 0 357.24 128.08
  Q 361.66 127.68 361.47 128.68
  Q 361.66 129.67 357.24 129.29
  A 0.78 0.78 0.0 0 0 356.39 130.06
  L 356.40 132.12
  A 0.80 0.79 89.9 0 0 357.19 132.91
  L 361.77 132.90
  A 0.51 0.51 0.0 0 1 362.28 133.41
  L 362.28 133.73
  A 0.50 0.50 0.0 0 1 361.80 134.23
  L 355.97 134.24
  A 0.88 0.87 86.3 0 1 355.09 133.47
  Q 355.03 132.98 355.02 128.68
  Z"
/>
<path fill="#020507" d="
  M 372.42 134.21
  Q 371.89 134.21 371.75 133.77
  A 0.37 0.24 -66.8 0 1 371.73 133.65
  L 371.74 125.10
  A 0.68 0.67 89.7 0 0 371.06 124.42
  L 368.68 124.44
  A 0.49 0.48 -80.4 0 1 368.22 123.79
  L 368.25 123.72
  A 0.73 0.73 0.0 0 1 368.98 123.15
  Q 370.73 123.20 372.43 123.32
  Q 374.14 123.19 375.89 123.13
  A 0.73 0.73 0.0 0 1 376.62 123.69
  L 376.65 123.76
  A 0.49 0.48 80.1 0 1 376.19 124.41
  L 373.82 124.41
  A 0.68 0.67 -90.0 0 0 373.14 125.09
  L 373.20 133.64
  A 0.37 0.24 66.5 0 1 373.18 133.77
  Q 373.04 134.21 372.42 134.21
  Z"
/>
<path fill="#020507" d="
  M 404.15 128.66
  Q 404.33 129.66 399.91 129.26
  A 0.78 0.78 0.0 0 0 399.06 130.04
  L 399.06 132.10
  A 0.80 0.79 -90.0 0 0 399.85 132.90
  L 404.44 132.90
  A 0.51 0.51 0.0 0 1 404.95 133.41
  L 404.95 133.73
  A 0.50 0.50 0.0 0 1 404.46 134.23
  L 398.62 134.23
  A 0.88 0.87 86.5 0 1 397.74 133.45
  Q 397.69 132.96 397.69 128.66
  Q 397.69 124.36 397.75 123.87
  A 0.88 0.87 -86.4 0 1 398.63 123.09
  L 404.47 123.09
  A 0.50 0.50 0.0 0 1 404.95 123.59
  L 404.95 123.91
  A 0.51 0.51 0.0 0 1 404.44 124.42
  L 399.85 124.42
  A 0.80 0.79 -89.9 0 0 399.06 125.22
  L 399.06 127.28
  A 0.78 0.78 0.0 0 0 399.91 128.05
  Q 404.34 127.66 404.15 128.66
  Z"
/>
<path fill="#020507" d="
  M 413.06 133.74
  A 0.46 0.46 0.0 0 1 412.60 134.20
  L 412.30 134.20
  A 0.53 0.53 0.0 0 1 411.77 133.67
  L 411.77 124.10
  A 0.76 0.75 -2.0 0 1 412.48 123.35
  Q 415.35 123.18 416.68 123.34
  C 418.92 123.62 420.21 125.93 419.28 128.01
  C 418.96 128.72 418.37 129.01 417.75 129.39
  A 0.64 0.63 59.5 0 0 417.53 130.25
  L 419.60 133.83
  A 0.30 0.29 -14.7 0 1 419.34 134.27
  L 418.89 134.27
  A 0.94 0.91 74.7 0 1 418.09 133.80
  L 416.17 130.47
  A 1.67 1.67 0.0 0 0 413.06 131.31
  L 413.06 133.74
  Z
  M 413.17 124.96
  L 413.13 128.18
  A 0.60 0.60 0.0 0 0 413.73 128.79
  L 415.35 128.81
  A 2.86 2.07 0.6 0 0 418.23 126.77
  L 418.23 126.49
  A 2.86 2.07 0.6 0 0 415.39 124.39
  L 413.77 124.37
  A 0.60 0.60 0.0 0 0 413.17 124.96
  Z"
/>
<path fill="#020507" d="
  M 451.22 132.88
  A 0.60 0.60 0.0 0 1 451.82 133.48
  L 451.82 133.78
  A 0.51 0.51 0.0 0 1 451.31 134.29
  L 445.65 134.29
  A 0.70 0.70 0.0 0 1 444.95 133.59
  L 444.95 123.88
  A 0.59 0.59 0.0 0 1 445.54 123.29
  L 445.86 123.29
  A 0.55 0.55 0.0 0 1 446.41 123.84
  L 446.41 132.17
  A 0.71 0.71 0.0 0 0 447.12 132.88
  L 451.22 132.88
  Z"
/>
<rect fill="#020507" x="-0.75" y="-5.51" transform="translate(459.37,128.81) rotate(-0.1)" width="1.50" height="11.02" rx="0.57"/>
<path fill="#020507" d="
  M 471.46 134.19
  Q 470.85 134.19 470.68 133.80
  Q 469.63 131.41 466.73 123.78
  A 0.35 0.35 0.0 0 1 467.06 123.31
  L 467.43 123.31
  A 0.63 0.63 0.0 0 1 468.00 123.67
  C 468.47 124.69 471.04 131.43 471.16 131.50
  Q 471.34 131.60 471.56 131.60
  Q 471.63 131.60 471.82 131.50
  C 471.93 131.43 474.51 124.70 474.98 123.68
  A 0.63 0.63 0.0 0 1 475.56 123.31
  L 475.93 123.31
  A 0.35 0.35 0.0 0 1 476.25 123.79
  Q 473.34 131.42 472.29 133.80
  Q 472.12 134.19 471.46 134.19
  Z"
/>
<path fill="#020507" d="
  M 482.80 128.67
  Q 482.80 124.36 482.85 123.87
  A 0.88 0.87 -86.5 0 1 483.73 123.09
  L 489.58 123.08
  A 0.50 0.50 0.0 0 1 490.07 123.58
  L 490.07 123.90
  A 0.51 0.51 0.0 0 1 489.56 124.41
  L 484.96 124.42
  A 0.80 0.79 89.9 0 0 484.17 125.22
  L 484.17 127.28
  A 0.79 0.78 -2.6 0 0 485.03 128.06
  Q 489.46 127.66 489.27 128.66
  Q 489.46 129.66 485.03 129.27
  A 0.79 0.78 2.4 0 0 484.18 130.05
  L 484.18 132.11
  A 0.80 0.79 89.9 0 0 484.98 132.91
  L 489.57 132.90
  A 0.51 0.51 0.0 0 1 490.08 133.41
  L 490.08 133.73
  A 0.50 0.50 0.0 0 1 489.59 134.23
  L 483.75 134.24
  A 0.88 0.87 86.3 0 1 482.87 133.46
  Q 482.81 132.97 482.80 128.67
  Z"
/>
<path fill="#020507" d="
  M 514.07 127.99
  A 0.85 0.83 41.8 0 0 514.13 129.02
  C 514.53 129.50 515.19 129.84 515.29 130.61
  C 515.90 134.75 511.00 134.39 507.55 134.26
  A 0.61 0.60 -88.8 0 1 506.97 133.65
  L 507.00 124.12
  A 0.76 0.74 -4.9 0 1 507.63 123.38
  Q 509.79 123.03 512.24 123.33
  C 514.83 123.64 515.45 125.95 514.07 127.99
  Z
  M 508.47 125.17
  L 508.47 127.21
  A 0.74 0.74 0.0 0 0 509.21 127.95
  L 510.96 127.95
  A 2.53 1.57 0.0 0 0 513.49 126.38
  L 513.49 126.00
  A 2.53 1.57 -0.0 0 0 510.96 124.43
  L 509.21 124.43
  A 0.74 0.74 0.0 0 0 508.47 125.17
  Z
  M 508.44 129.98
  L 508.42 132.16
  A 0.79 0.79 0.0 0 0 509.21 132.96
  L 511.90 132.98
  A 1.94 1.77 0.4 0 0 513.85 131.22
  L 513.85 131.00
  A 1.94 1.77 0.4 0 0 511.92 129.22
  L 509.23 129.20
  A 0.79 0.79 0.0 0 0 508.44 129.98
  Z"
/>
<path fill="#020507" d="
  M 579.52 133.83
  A 0.47 0.47 0.0 0 1 579.06 134.31
  L 578.75 134.31
  A 0.54 0.54 0.0 0 1 578.21 133.78
  L 578.12 124.01
  A 0.78 0.77 -2.6 0 1 578.83 123.23
  Q 581.76 123.03 583.12 123.18
  C 585.41 123.45 586.75 125.80 585.82 127.93
  C 585.50 128.65 584.90 128.96 584.27 129.35
  A 0.65 0.65 0.0 0 0 584.05 130.23
  L 586.20 133.87
  A 0.30 0.30 0.0 0 1 585.94 134.32
  L 585.48 134.32
  A 0.96 0.93 74.2 0 1 584.66 133.85
  L 582.67 130.47
  A 1.70 1.70 0.0 0 0 579.50 131.35
  L 579.52 133.83
  Z
  M 579.47 125.20
  L 579.51 128.00
  A 0.78 0.78 0.0 0 0 580.30 128.77
  L 582.53 128.73
  A 2.27 2.04 -0.8 0 0 584.77 126.66
  L 584.77 126.38
  A 2.27 2.04 -0.8 0 0 582.47 124.38
  L 580.24 124.41
  A 0.78 0.78 0.0 0 0 579.47 125.20
  Z"
/>
<circle fill="#020507" cx="427.21" cy="133.41" r="0.85"/>
<path fill="#020507" d="
  M 594.31 133.88
  A 0.86 0.84 -38.2 0 1 592.78 133.72
  Q 592.71 133.49 592.82 132.98
  A 0.79 0.76 40.9 0 1 594.30 132.90
  Q 594.54 133.50 594.31 133.88
  Z"
/>
</svg>
