<?xml version="1.0" encoding="UTF-8" standalone="no"?>
<!DOCTYPE svg PUBLIC "-//W3C//DTD SVG 1.1//EN" "http://www.w3.org/Graphics/SVG/1.1/DTD/svg11.dtd">
<svg xmlns="http://www.w3.org/2000/svg" version="1.1" viewBox="0.00 0.00 302.00 65.00">
<path stroke="#98ded9" stroke-width="2.00" fill="none" stroke-linecap="butt" vector-effect="non-scaling-stroke" d="
  M 157.07 33.47
  Q 156.91 33.34 157.02 32.79"
/>
<path fill="#36c1b6" d="
  M 51.97 28.79
  L 51.40 28.52
  A 0.05 0.05 0.0 0 1 51.36 28.47
  Q 48.53 15.97 36.53 13.71
  C 26.39 11.80 16.41 18.89 14.40 28.86
  A 0.91 0.90 5.8 0 1 13.51 29.58
  L 6.81 29.58
  A 0.66 0.66 0.0 0 1 6.16 28.82
  C 8.20 16.19 18.16 6.24 31.52 7.37
  C 42.82 8.32 50.71 17.61 52.35 28.51
  A 0.27 0.27 0.0 0 1 51.97 28.79
  Z"
/>
<path fill="#f9fbfb" d="
  M 102.35 20.66
  Q 102.30 22.15 102.36 29.44
  Q 102.42 36.15 101.25 38.31
  Q 98.56 43.27 92.06 42.42
  Q 85.24 41.53 84.93 34.56
  Q 84.61 27.28 84.94 21.01
  A 1.25 1.22 25.8 0 0 84.61 20.10
  Q 84.25 19.69 83.47 19.50
  Q 83.00 19.37 83.10 19.01
  Q 83.18 18.72 83.32 18.61
  Q 83.54 18.43 83.74 18.44
  Q 86.85 18.70 90.01 18.34
  A 0.56 0.56 0.0 0 1 90.64 18.89
  L 90.64 19.21
  A 0.40 0.38 -8.0 0 1 90.35 19.58
  L 89.22 19.86
  A 0.74 0.74 0.0 0 0 88.67 20.68
  Q 88.77 21.40 88.62 33.15
  Q 88.57 37.69 89.65 39.20
  C 91.99 42.46 98.32 41.79 100.31 38.31
  Q 101.34 36.52 101.28 32.41
  Q 101.20 27.22 101.21 20.63
  A 0.90 0.88 7.1 0 0 100.53 19.77
  L 99.34 19.49
  A 0.52 0.52 0.0 0 1 99.46 18.46
  L 103.64 18.46
  A 0.54 0.54 0.0 0 1 103.75 19.53
  L 103.21 19.64
  A 1.07 1.06 -5.1 0 0 102.35 20.66
  Z"
/>
<path fill="#f9fbfb" d="
  M 190.18 28.25
  L 190.18 20.62
  A 0.90 0.90 0.0 0 0 189.60 19.78
  L 188.65 19.40
  A 0.50 0.50 0.0 0 1 188.83 18.43
  L 193.13 18.43
  A 0.44 0.44 0.0 0 1 193.57 18.88
  Q 193.41 27.38 193.59 39.82
  Q 193.60 40.93 193.86 41.06
  Q 194.52 41.37 195.23 41.59
  A 0.18 0.17 -85.7 0 1 195.36 41.75
  Q 195.38 41.97 195.26 42.06
  A 0.45 0.17 -44.7 0 1 195.01 42.17
  L 190.87 42.20
  A 0.63 0.63 0.0 0 1 190.23 41.57
  L 190.23 40.79
  A 0.36 0.36 0.0 0 0 189.61 40.55
  Q 186.84 43.64 183.12 42.11
  C 177.93 39.99 177.19 33.24 180.11 29.13
  Q 182.57 25.66 187.20 26.47
  A 1.98 1.98 0.0 0 1 188.22 27.00
  L 189.68 28.46
  A 0.29 0.29 0.0 0 0 190.18 28.25
  Z
  M 186.2432 27.1303
  A 7.24 4.24 -89.5 0 0 181.9402 34.3330
  A 7.24 4.24 -89.5 0 0 186.1168 41.6097
  A 7.24 4.24 -89.5 0 0 190.4198 34.4070
  A 7.24 4.24 -89.5 0 0 186.2432 27.1303
  Z"
/>
<path fill="#36c1b6" d="
  M 236.25 42.21
  L 230.68 42.21
  A 0.33 0.33 0.0 0 1 230.55 41.57
  L 231.14 41.34
  A 0.74 0.73 79.7 0 0 231.61 40.65
  L 231.61 30.57
  A 2.91 2.90 85.4 0 0 228.25 27.70
  L 227.91 27.75
  A 4.08 4.08 0.0 0 0 224.47 31.78
  L 224.47 40.42
  A 1.07 1.06 88.5 0 0 225.59 41.49
  Q 225.94 41.47 226.01 41.51
  A 0.34 0.34 0.0 0 1 225.82 42.14
  L 219.70 42.12
  A 0.17 0.17 0.0 0 1 219.53 41.97
  Q 219.51 41.84 219.51 41.68
  A 0.10 0.10 0.0 0 1 219.61 41.58
  Q 221.39 41.64 221.24 39.88
  Q 221.19 39.21 221.19 38.65
  Q 221.32 28.14 221.33 21.98
  Q 221.33 19.27 219.84 19.22
  A 0.18 0.18 0.0 0 1 219.80 18.87
  Q 221.04 18.49 223.84 18.41
  A 0.69 0.69 0.0 0 1 224.55 19.10
  L 224.55 28.71
  A 0.34 0.34 0.0 0 0 225.17 28.90
  Q 228.30 24.20 233.44 27.55
  Q 234.89 28.49 234.95 31.04
  Q 235.07 36.72 235.12 40.28
  A 0.97 0.95 4.3 0 0 235.93 41.21
  Q 236.26 41.27 236.44 41.35
  A 0.45 0.45 0.0 0 1 236.25 42.21
  Z"
/>
<path fill="#36c1b6" d="
  M 207.96 41.74
  A 0.21 0.21 0.0 0 1 207.89 42.14
  L 201.02 42.14
  A 0.29 0.24 50.7 0 1 200.92 42.12
  Q 200.61 42.02 200.64 41.71
  A 0.08 0.08 0.0 0 1 200.71 41.63
  Q 201.90 41.34 202.31 40.90
  A 1.45 1.42 -24.0 0 0 202.68 39.97
  Q 202.77 33.51 202.70 23.57
  C 202.69 21.85 203.24 20.23 201.42 19.23
  A 0.35 0.35 0.0 0 1 201.59 18.58
  L 211.65 18.48
  A 0.89 0.75 50.1 0 1 211.93 18.53
  Q 213.96 19.29 214.69 19.74
  C 220.21 23.13 219.19 29.59 213.44 31.92
  C 211.25 32.81 209.16 32.29 207.13 32.32
  A 0.99 0.99 0.0 0 0 206.16 33.31
  L 206.12 40.15
  A 1.13 1.12 -68.0 0 0 206.47 40.99
  Q 206.83 41.34 207.96 41.74
  Z
  M 206.16 20.32
  L 206.30 30.82
  A 0.84 0.84 0.0 0 0 207.16 31.65
  L 209.32 31.62
  A 5.32 5.30 -0.8 0 0 214.56 26.24
  L 214.54 24.66
  A 5.32 5.30 -0.8 0 0 209.15 19.44
  L 206.99 19.47
  A 0.84 0.84 0.0 0 0 206.16 20.32
  Z"
/>
<path fill="#36c1b6" d="
  M 270.43 19.45
  A 0.83 0.83 0.0 0 1 271.61 19.45
  L 272.44 20.30
  A 1.98 1.90 45.3 0 1 272.48 23.04
  L 272.33 23.20
  A 1.98 1.90 45.3 0 1 269.59 23.13
  L 268.75 22.28
  A 0.83 0.83 0.0 0 1 268.75 21.11
  L 270.43 19.45
  Z"
/>
<path fill="#f9fbfb" d="
  M 111.25 28.46
  Q 114.56 24.29 119.21 27.61
  C 124.64 31.48 123.18 40.20 116.70 42.34
  Q 113.36 43.44 110.94 40.67
  A 0.21 0.21 0.0 0 0 110.57 40.81
  L 110.57 48.05
  A 0.72 0.71 11.0 0 0 111.02 48.71
  L 111.88 49.05
  A 0.28 0.28 0.0 0 1 111.82 49.58
  Q 108.92 50.05 105.83 49.44
  A 0.29 0.29 0.0 0 1 105.88 48.86
  L 106.47 48.86
  A 0.69 0.69 0.0 0 0 107.16 48.17
  L 107.16 29.18
  A 0.72 0.72 0.0 0 0 106.70 28.51
  L 105.75 28.13
  A 0.47 0.46 -80.3 0 1 105.45 27.69
  L 105.45 27.42
  A 0.41 0.40 5.9 0 1 105.94 27.03
  Q 107.88 27.45 109.70 26.47
  A 0.58 0.58 0.0 0 1 110.55 26.98
  L 110.55 28.22
  A 0.39 0.39 0.0 0 0 111.25 28.46
  Z
  M 118.6002 31.3223
  A 3.71 3.71 0.0 0 0 114.9490 27.5545
  L 114.4890 27.5472
  A 3.71 3.71 0.0 0 0 110.7212 31.1985
  L 110.6198 37.6577
  A 3.71 3.71 0.0 0 0 114.2710 41.4255
  L 114.7310 41.4328
  A 3.71 3.71 0.0 0 0 118.4988 37.7815
  L 118.6002 31.3223
  Z"
/>
<path fill="#f9fbfb" d="
  M 131.82 37.10
  A 0.17 0.17 0.0 0 0 132.14 37.11
  L 136.11 27.02
  A 0.57 0.56 -44.9 0 1 137.16 27.02
  L 141.06 36.90
  A 0.54 0.54 0.0 0 0 142.09 36.80
  Q 142.67 33.66 144.26 29.75
  Q 145.03 27.86 143.50 27.41
  A 0.45 0.44 9.9 0 1 143.18 26.96
  Q 143.20 26.61 143.52 26.40
  Q 143.75 26.25 144.05 26.32
  Q 145.51 26.64 146.97 26.33
  A 0.65 0.64 22.3 0 1 147.46 27.50
  Q 147.29 27.61 146.75 27.74
  A 1.06 1.05 3.7 0 0 146.02 28.37
  L 140.63 42.07
  A 0.53 0.53 0.0 0 1 139.65 42.07
  L 135.87 32.48
  A 0.48 0.48 0.0 0 0 134.98 32.48
  L 131.20 42.07
  A 0.39 0.39 0.0 0 1 130.48 42.08
  Q 128.68 38.08 125.26 29.49
  Q 124.63 27.92 123.28 27.29
  A 0.35 0.35 0.0 0 1 123.43 26.62
  L 130.13 26.62
  A 0.21 0.21 0.0 0 1 130.34 26.83
  L 130.34 27.13
  A 0.33 0.33 0.0 0 1 130.01 27.46
  Q 129.16 27.44 128.79 27.68
  A 0.79 0.79 0.0 0 0 128.53 28.60
  L 131.82 37.10
  Z"
/>
<path fill="#f9fbfb" d="
  M 157.07 33.47
  Q 156.91 33.34 157.02 32.79
  C 157.97 29.57 156.21 26.57 152.79 27.65
  A 1.18 1.06 -27.0 0 0 152.13 29.38
  Q 152.52 29.86 152.64 30.34
  A 1.59 1.30 -12.4 0 1 151.35 31.97
  C 149.02 32.46 148.59 30.11 149.74 28.76
  Q 153.52 24.33 158.28 27.42
  C 160.39 28.79 160.85 30.85 160.81 33.47
  Q 160.73 39.72 160.79 40.44
  A 0.74 0.72 -77.8 0 0 161.15 41.02
  Q 161.79 41.38 163.04 39.90
  A 0.33 0.33 0.0 0 1 163.61 40.21
  Q 162.71 43.07 159.70 42.31
  Q 158.44 42.00 158.02 40.77
  A 0.54 0.54 0.0 0 0 157.12 40.56
  Q 154.18 43.58 150.46 41.97
  Q 148.52 41.13 148.22 39.58
  C 147.37 35.22 152.78 33.48 156.20 33.40
  A 0.20 0.20 0.0 0 1 156.40 33.60
  L 156.40 34.12
  A 0.11 0.10 -90.0 0 1 156.30 34.23
  Q 154.10 34.28 153.49 34.69
  Q 150.59 36.63 151.87 39.67
  A 2.36 2.01 63.1 0 0 154.94 40.95
  Q 155.65 40.50 156.79 39.69
  A 1.04 1.02 71.5 0 0 157.22 38.81
  L 157.07 33.47
  Z"
/>
<path fill="#f9fbfb" d="
  M 172.11 41.71
  A 0.24 0.24 0.0 0 1 172.04 42.18
  L 165.48 42.18
  A 0.27 0.27 0.0 0 1 165.21 41.91
  L 165.21 41.66
  A 0.02 0.01 -90.0 0 1 165.22 41.64
  Q 166.58 41.29 166.77 41.13
  Q 167.09 40.89 167.06 39.85
  Q 166.91 35.01 167.15 29.62
  A 1.48 1.48 0.0 0 0 166.73 28.54
  L 165.50 27.32
  A 0.33 0.33 0.0 0 1 165.76 26.76
  Q 168.42 26.98 169.66 26.46
  A 0.54 0.53 -11.4 0 1 170.41 26.95
  L 170.41 28.72
  A 0.34 0.34 0.0 0 0 171.06 28.86
  C 172.19 26.24 176.46 24.80 177.44 28.50
  Q 177.77 29.74 176.67 30.46
  A 1.60 1.38 -20.9 0 1 174.25 29.59
  Q 174.23 29.29 174.21 28.22
  A 0.46 0.46 0.0 0 0 173.52 27.82
  C 171.51 28.96 170.30 30.46 170.43 32.86
  Q 170.48 33.75 170.40 40.46
  A 0.94 0.93 -80.9 0 0 171.05 41.37
  L 172.11 41.71
  Z"
/>
<path fill="#36c1b6" d="
  M 236.94 27.11
  A 0.28 0.28 0.0 0 1 237.07 26.59
  L 243.49 26.59
  A 0.23 0.22 -90.0 0 1 243.71 26.82
  L 243.71 27.11
  A 0.38 0.37 85.5 0 1 243.40 27.48
  Q 242.00 27.67 242.39 28.60
  Q 242.64 29.21 246.38 37.37
  A 0.44 0.44 0.0 0 0 247.20 37.32
  L 250.07 28.41
  A 0.71 0.70 20.1 0 0 249.66 27.54
  L 248.98 27.28
  A 0.39 0.39 0.0 0 1 249.12 26.52
  L 253.03 26.52
  A 0.46 0.46 0.0 0 1 253.13 27.43
  Q 252.04 27.66 251.53 28.79
  Q 246.33 40.34 245.64 42.56
  Q 244.02 47.76 242.65 48.89
  A 5.39 4.46 5.4 0 1 241.96 49.36
  C 238.55 51.30 235.42 47.24 239.21 45.60
  A 1.12 1.11 78.3 0 1 240.77 46.63
  L 240.77 47.99
  A 0.79 0.79 0.0 0 0 242.29 48.28
  L 244.48 42.72
  A 1.75 1.72 44.6 0 0 244.46 41.38
  Q 242.13 36.08 240.18 31.76
  C 239.30 29.82 238.96 28.18 236.94 27.11
  Z"
/>
<path fill="#36c1b6" d="
  M 264.71 27.50
  Q 265.02 29.41 264.65 31.02
  A 0.51 0.50 -43.2 0 1 263.66 30.99
  Q 263.07 27.33 259.83 27.26
  C 256.39 27.19 256.42 30.65 258.85 31.94
  C 260.86 33.00 263.44 33.20 265.34 35.72
  A 2.02 2.01 -63.7 0 1 265.75 36.94
  C 265.77 42.32 261.00 43.62 256.65 41.77
  A 1.14 1.14 0.0 0 0 255.93 41.71
  L 254.86 41.96
  A 0.42 0.41 -6.7 0 1 254.35 41.56
  L 254.35 37.97
  A 0.57 0.57 0.0 0 1 255.47 37.83
  Q 256.61 42.53 261.42 41.32
  A 2.30 2.30 0.0 0 0 262.81 37.86
  C 261.95 36.51 259.70 35.71 258.22 35.14
  C 255.01 33.91 252.87 31.22 255.58 28.07
  Q 258.12 25.13 262.18 26.72
  C 263.26 27.14 263.27 26.89 264.08 26.93
  A 0.67 0.66 86.9 0 1 264.71 27.50
  Z"
/>
<path fill="#36c1b6" d="
  M 291.97 34.40
  A 8.02 8.02 0.0 0 1 283.95 42.42
  A 8.02 8.02 0.0 0 1 275.93 34.40
  A 8.02 8.02 0.0 0 1 283.95 26.38
  A 8.02 8.02 0.0 0 1 291.97 34.40
  Z
  M 283.8426 27.0404
  A 7.39 4.37 -90.6 0 0 279.5502 34.4758
  A 7.39 4.37 -90.6 0 0 283.9974 41.8196
  A 7.39 4.37 -90.6 0 0 288.2898 34.3842
  A 7.39 4.37 -90.6 0 0 283.8426 27.0404
  Z"
/>
<path fill="#36c1b6" d="
  M 268.35 26.53
  L 272.16 26.53
  A 0.63 0.62 -90.0 0 1 272.78 27.16
  L 272.78 40.65
  A 0.69 0.69 0.0 0 0 273.34 41.33
  Q 274.00 41.47 274.22 41.60
  A 0.32 0.31 -29.1 0 1 274.05 42.18
  L 267.92 42.18
  A 0.27 0.26 -52.8 0 1 267.85 41.66
  L 268.76 41.40
  A 0.90 0.89 -8.2 0 0 269.41 40.54
  L 269.41 28.38
  A 0.72 0.71 11.0 0 0 268.96 27.72
  L 268.19 27.42
  A 0.46 0.46 0.0 0 1 268.35 26.53
  Z"
/>
<path fill="#f9fbfb" d="
  M 62.01 32.71
  L 68.95 32.71
  A 0.52 0.52 0.0 0 1 69.47 33.30
  Q 67.65 46.66 56.55 53.12
  C 50.28 56.76 41.57 56.96 35.17 53.25
  Q 24.36 46.99 22.72 33.39
  A 0.39 0.38 -60.9 0 1 23.45 33.18
  C 24.31 35.03 24.80 37.48 25.62 39.21
  Q 28.06 44.40 33.87 47.40
  C 46.05 53.69 58.80 46.00 61.43 33.19
  A 0.60 0.59 -84.0 0 1 62.01 32.71
  Z"
/>
<path fill="#36c1b6" d="
  M 157.02 32.79
  Q 156.91 33.34 157.07 33.47
  Q 156.47 33.37 157.02 32.79
  Z"
/>
</svg>
