<?xml version="1.0" encoding="UTF-8" standalone="no"?>
<!DOCTYPE svg PUBLIC "-//W3C//DTD SVG 1.1//EN" "http://www.w3.org/Graphics/SVG/1.1/DTD/svg11.dtd">
<svg xmlns="http://www.w3.org/2000/svg" version="1.1" viewBox="0.00 0.00 136.00 122.00">
<path fill="#3dc3b9" d="
  M 9.35 51.39
  A 1.06 1.05 4.6 0 1 8.30 50.17
  Q 11.36 31.22 24.77 19.66
  Q 42.17 4.65 65.81 9.67
  Q 69.94 10.54 75.19 13.58
  Q 96.13 25.71 98.13 51.01
  A 0.36 0.36 0.0 0 1 97.77 51.40
  L 97.31 51.40
  A 0.39 0.39 0.0 0 1 96.92 51.05
  Q 95.29 38.34 85.95 29.79
  C 74.66 19.46 59.62 17.57 45.72 23.64
  C 35.56 28.07 25.87 38.91 24.08 50.85
  A 0.65 0.63 4.1 0 1 23.44 51.39
  L 9.35 51.39
  Z"
/>
<path fill="#0b1c27" d="
  M 130.47 58.54
  A 0.77 0.76 -86.6 0 1 131.22 59.40
  C 128.87 79.09 115.24 96.41 96.08 101.28
  Q 86.99 103.59 76.96 101.88
  Q 67.60 100.28 59.49 94.27
  Q 42.71 81.83 40.83 59.10
  A 0.40 0.39 -2.6 0 1 41.23 58.67
  L 41.57 58.67
  A 0.44 0.44 0.0 0 1 42.00 59.02
  Q 43.00 64.35 43.85 66.40
  Q 50.47 82.25 66.28 88.20
  Q 70.47 89.77 76.32 90.31
  Q 81.33 90.77 86.54 89.57
  Q 102.90 85.78 111.59 70.80
  Q 114.52 65.75 115.68 59.07
  A 0.64 0.63 -85.1 0 1 116.30 58.54
  L 130.47 58.54
  Z"
/>
</svg>
