<?xml version="1.0" encoding="UTF-8" standalone="no"?>
<!DOCTYPE svg PUBLIC "-//W3C//DTD SVG 1.1//EN" "http://www.w3.org/Graphics/SVG/1.1/DTD/svg11.dtd">
<svg xmlns="http://www.w3.org/2000/svg" version="1.1" viewBox="0.00 0.00 323.00 72.00">
<path stroke="#78c4bd" stroke-width="2.00" fill="none" stroke-linecap="butt" vector-effect="non-scaling-stroke" d="
  M 231.46 57.98
  Q 230.41 57.44 230.30 57.96"
/>
<path fill="#36c3b8" d="
  M 8.14 32.86
  A 0.96 0.96 0.0 0 1 7.20 31.71
  Q 10.51 15.24 24.89 10.41
  C 32.72 7.78 41.35 9.37 47.53 15.19
  Q 54.52 21.77 56.57 31.71
  A 0.12 0.11 -19.3 0 1 56.50 31.85
  L 55.80 32.12
  A 0.18 0.18 0.0 0 1 55.56 32.00
  Q 55.33 31.25 53.76 27.23
  Q 51.58 21.69 46.23 18.57
  C 34.12 11.54 19.43 18.46 16.05 31.73
  A 1.50 1.50 0.0 0 1 14.60 32.86
  L 8.14 32.86
  Z"
/>
<path fill="#f9fbfb" d="
  M 200.00 17.48
  A 0.29 0.29 0.0 0 1 200.26 16.99
  Q 202.29 17.42 203.84 16.63
  A 0.75 0.74 76.6 0 1 204.92 17.30
  L 204.92 39.55
  A 0.48 0.46 11.4 0 0 205.22 39.98
  L 206.97 40.66
  A 0.43 0.43 0.0 0 1 206.88 41.49
  Q 205.44 41.70 202.25 41.54
  A 0.71 0.71 0.0 0 1 201.60 40.62
  Q 201.67 40.41 201.67 40.38
  A 0.47 0.47 0.0 0 0 200.90 39.91
  L 199.52 41.14
  A 0.62 0.60 14.8 0 1 199.29 41.27
  C 192.49 43.45 188.21 37.82 189.45 31.58
  C 190.49 26.36 196.69 22.35 201.10 26.91
  A 0.27 0.27 0.0 0 0 201.56 26.72
  L 201.56 19.26
  A 0.51 0.51 0.0 0 0 201.41 18.90
  L 200.00 17.48
  Z
  M 201.4891 29.9858
  A 3.85 3.85 0.0 0 0 197.6728 26.1024
  L 197.1928 26.0982
  A 3.85 3.85 0.0 0 0 193.3094 29.9144
  L 193.2509 36.6142
  A 3.85 3.85 0.0 0 0 197.0672 40.4976
  L 197.5472 40.5018
  A 3.85 3.85 0.0 0 0 201.4306 36.6856
  L 201.4891 29.9858
  Z"
/>
<path fill="#36c3b8" d="
  M 232.86 17.54
  A 0.25 0.25 0.0 0 1 232.96 17.09
  L 236.91 16.44
  A 0.57 0.56 85.3 0 1 237.56 17.00
  L 237.56 27.61
  A 0.36 0.36 0.0 0 0 238.24 27.78
  C 239.58 25.25 242.25 24.34 244.93 25.34
  Q 248.74 26.76 248.53 31.75
  Q 248.33 36.42 248.45 39.35
  A 0.95 0.94 -81.0 0 0 249.05 40.19
  L 250.32 40.68
  A 0.44 0.43 -34.3 0 1 250.16 41.52
  L 244.09 41.52
  A 0.50 0.50 0.0 0 1 243.82 40.60
  L 244.68 40.06
  A 0.93 0.92 -21.7 0 0 245.10 39.10
  Q 245.02 38.70 245.05 30.05
  Q 245.07 26.24 240.70 26.39
  A 0.84 0.82 21.2 0 0 240.14 26.63
  L 237.94 28.83
  A 1.28 1.25 68.4 0 0 237.56 29.74
  L 237.56 39.63
  A 0.82 0.80 9.7 0 0 238.11 40.39
  Q 239.19 40.77 239.22 40.80
  A 0.32 0.32 0.0 0 1 239.03 41.34
  Q 235.37 41.78 232.51 41.37
  A 0.38 0.38 0.0 0 1 232.50 40.61
  L 233.46 40.45
  A 0.82 0.82 0.0 0 0 234.15 39.64
  L 234.15 19.34
  A 1.25 1.20 -65.0 0 0 233.89 18.58
  Q 233.28 17.82 232.86 17.54
  Z"
/>
<path fill="#f9fbfb" d="
  M 89.74 17.65
  A 0.28 0.28 0.0 0 1 89.84 17.11
  L 97.19 17.11
  A 0.23 0.22 -90.0 0 1 97.41 17.34
  L 97.41 17.65
  A 0.38 0.37 -83.4 0 1 96.95 18.02
  Q 95.52 17.67 95.50 19.50
  Q 95.38 31.01 95.48 33.97
  Q 95.73 41.41 103.21 40.35
  Q 105.69 40.00 107.60 37.32
  Q 108.69 35.79 108.45 31.93
  Q 108.39 31.03 108.52 19.56
  Q 108.53 18.85 108.17 18.48
  Q 107.83 18.11 106.93 18.19
  A 0.47 0.46 76.3 0 1 106.48 17.91
  Q 106.23 17.30 106.61 17.10
  A 0.38 0.31 -51.0 0 1 106.75 17.07
  L 111.07 17.13
  A 0.43 0.43 0.0 0 1 111.42 17.80
  Q 111.30 17.98 110.34 18.18
  A 0.91 0.91 0.0 0 0 109.63 19.08
  Q 109.70 27.47 109.64 33.21
  Q 109.57 39.17 103.62 41.60
  Q 102.71 41.97 99.11 41.76
  C 95.07 41.51 91.68 38.23 91.56 34.46
  Q 91.39 28.90 91.47 18.96
  A 0.93 0.92 10.7 0 0 90.88 18.10
  L 89.74 17.65
  Z"
/>
<path fill="#36c3b8" d="
  M 220.92 40.86
  A 0.30 0.30 0.0 0 1 220.75 41.40
  L 213.74 41.56
  A 0.50 0.50 0.0 0 1 213.55 40.60
  L 214.64 40.17
  A 0.74 0.74 0.0 0 0 215.12 39.48
  L 215.12 19.57
  A 0.98 0.90 -58.5 0 0 215.05 19.21
  Q 214.67 18.13 213.71 17.88
  A 0.43 0.43 0.0 0 1 213.84 17.04
  Q 219.25 17.33 223.49 17.05
  Q 225.46 16.92 227.44 18.16
  Q 232.45 21.32 230.59 26.66
  Q 229.30 30.35 224.15 31.37
  Q 223.28 31.54 219.34 31.10
  A 0.64 0.63 2.9 0 0 218.64 31.73
  L 218.64 39.47
  A 0.96 0.96 0.0 0 0 219.42 40.41
  Q 220.65 40.66 220.92 40.86
  Z
  M 218.69 18.71
  L 218.65 29.79
  A 0.69 0.69 0.0 0 0 219.34 30.49
  L 221.98 30.50
  A 5.33 5.13 0.2 0 0 227.33 25.39
  L 227.33 23.19
  A 5.33 5.13 0.2 0 0 222.02 18.04
  L 219.38 18.03
  A 0.69 0.69 0.0 0 0 218.69 18.71
  Z"
/>
<circle fill="#36c3b8" cx="285.48" cy="20.01" r="2.08"/>
<path fill="#f9fbfb" d="
  M 166.74 40.03
  Q 163.95 42.69 160.26 41.50
  Q 158.32 40.87 157.61 38.87
  C 156.47 35.67 160.79 32.98 163.31 32.62
  Q 166.12 32.21 166.56 32.08
  A 0.98 0.97 -4.3 0 0 167.24 31.29
  Q 167.82 27.17 164.38 25.82
  A 2.07 2.07 0.0 0 0 161.63 28.34
  Q 161.64 28.37 161.94 29.05
  A 1.35 1.31 -6.6 0 1 160.47 30.85
  Q 159.11 30.63 158.65 29.76
  A 2.52 1.99 -34.3 0 1 159.53 26.97
  Q 165.67 22.12 170.36 28.38
  A 1.53 1.50 26.6 0 1 170.66 29.25
  Q 170.73 31.78 170.69 39.23
  A 1.03 0.95 54.6 0 0 172.61 39.63
  Q 172.69 39.33 173.28 39.31
  A 0.62 0.50 -70.5 0 1 173.61 40.25
  Q 172.17 42.46 168.99 41.42
  A 1.14 1.12 -3.6 0 1 168.31 40.83
  Q 167.90 40.02 167.52 39.87
  A 0.74 0.74 0.0 0 0 166.74 40.03
  Z
  M 166.39 32.73
  L 163.20 33.97
  A 1.50 1.16 -66.5 0 0 162.91 34.13
  Q 159.79 36.44 161.70 39.55
  A 1.38 1.36 79.8 0 0 162.58 40.17
  Q 164.89 40.68 166.98 38.40
  A 0.83 0.79 67.9 0 0 167.20 37.84
  L 167.20 33.28
  A 0.59 0.59 0.0 0 0 166.39 32.73
  Z"
/>
<path fill="#f9fbfb" d="
  M 118.35 40.42
  L 118.35 47.42
  A 0.86 0.85 -79.6 0 0 118.89 48.22
  L 120.02 48.66
  A 0.35 0.34 55.5 0 1 119.90 49.33
  L 113.47 49.33
  A 0.36 0.36 0.0 0 1 113.34 48.64
  L 114.15 48.33
  A 0.91 0.91 0.0 0 0 114.73 47.50
  Q 114.83 39.94 114.73 28.05
  Q 114.71 26.59 113.09 26.67
  A 0.38 0.38 0.0 0 1 112.69 26.29
  L 112.69 25.88
  A 0.35 0.34 0.0 0 1 113.04 25.54
  L 118.09 25.54
  A 0.25 0.25 0.0 0 1 118.34 25.79
  L 118.34 27.06
  A 0.21 0.21 0.0 0 0 118.68 27.23
  Q 119.53 26.59 119.95 25.99
  A 1.28 1.28 0.0 0 1 120.66 25.47
  C 127.42 23.54 131.73 29.67 130.06 35.85
  Q 128.22 42.66 121.00 41.59
  A 2.03 1.98 -21.1 0 1 120.07 41.19
  Q 119.11 40.43 118.81 40.20
  A 0.28 0.28 0.0 0 0 118.35 40.42
  Z
  M 126.4726 30.1088
  A 3.83 3.83 0.0 0 0 122.6226 26.2989
  L 122.1626 26.3013
  A 3.83 3.83 0.0 0 0 118.3527 30.1513
  L 118.3874 36.7912
  A 3.83 3.83 0.0 0 0 122.2374 40.6011
  L 122.6974 40.5987
  A 3.83 3.83 0.0 0 0 126.5073 36.7487
  L 126.4726 30.1088
  Z"
/>
<path fill="#f9fbfb" d="
  M 181.37 27.87
  Q 182.98 24.62 185.96 25.13
  A 3.38 2.81 -89.9 0 1 188.34 28.01
  Q 188.43 28.80 187.09 29.49
  A 1.66 1.61 -18.7 0 1 184.71 28.36
  Q 184.67 28.14 184.81 27.35
  A 0.69 0.69 0.0 0 0 183.75 26.65
  Q 181.78 27.92 181.05 30.06
  A 2.73 2.71 56.1 0 0 180.88 30.95
  L 180.68 39.81
  A 0.66 0.66 0.0 0 0 181.34 40.49
  L 182.52 40.49
  A 0.26 0.26 0.0 0 1 182.78 40.75
  L 182.78 41.11
  A 0.37 0.37 0.0 0 1 182.41 41.48
  L 175.75 41.48
  A 0.42 0.41 0.0 0 1 175.33 41.07
  L 175.33 40.76
  A 0.32 0.32 0.0 0 1 175.65 40.44
  L 176.62 40.44
  A 0.65 0.65 0.0 0 0 177.27 39.79
  L 177.27 27.64
  A 0.82 0.81 10.5 0 0 176.74 26.88
  L 175.52 26.40
  A 0.49 0.49 0.0 0 1 175.70 25.46
  L 180.34 25.46
  A 0.44 0.43 2.9 0 1 180.78 25.94
  Q 180.74 26.24 180.61 27.48
  C 180.57 27.86 180.65 28.05 181.06 28.06
  A 0.36 0.35 -75.8 0 0 181.37 27.87
  Z"
/>
<path fill="#36c3b8" d="
  M 268.33 40.81
  L 268.33 37.29
  A 0.65 0.65 0.0 0 1 269.58 37.05
  L 270.54 39.51
  A 0.90 0.89 -86.5 0 0 270.97 40.00
  Q 274.85 42.01 277.07 39.83
  A 2.09 2.07 43.4 0 0 276.97 36.80
  C 274.60 34.68 271.65 34.83 268.97 32.04
  A 1.67 1.66 21.9 0 1 268.51 30.97
  Q 268.27 26.17 272.57 25.10
  C 274.52 24.61 276.14 25.28 278.44 25.69
  A 0.83 0.82 5.0 0 1 279.13 26.50
  L 279.13 29.33
  A 0.48 0.47 36.3 0 1 278.20 29.47
  C 276.01 22.54 267.33 27.49 272.92 30.88
  C 274.50 31.84 281.47 33.00 280.20 37.67
  C 279.02 42.01 275.64 42.28 271.62 41.48
  A 0.88 0.86 72.1 0 1 271.20 41.26
  Q 270.35 40.45 269.25 41.27
  A 0.58 0.57 -18.2 0 1 268.33 40.81
  Z"
/>
<path fill="#36c3b8" d="
  M 299.2638 24.9501
  A 8.47 8.13 -87.2 0 1 306.9703 33.8071
  A 8.47 8.13 -87.2 0 1 298.4362 41.8699
  A 8.47 8.13 -87.2 0 1 290.7297 33.0129
  A 8.47 8.13 -87.2 0 1 299.2638 24.9501
  Z
  M 298.6731 25.7814
  A 7.65 4.58 -91.1 0 0 294.2408 33.5179
  A 7.65 4.58 -91.1 0 0 298.9669 41.0786
  A 7.65 4.58 -91.1 0 0 303.3992 33.3421
  A 7.65 4.58 -91.1 0 0 298.6731 25.7814
  Z"
/>
<path fill="#f9fbfb" d="
  M 150.44 36.42
  Q 151.48 34.57 151.47 33.66
  A 0.95 0.93 -35.1 0 1 151.53 33.33
  L 153.84 27.58
  A 0.67 0.67 0.0 0 0 153.51 26.72
  Q 152.77 26.36 152.19 26.29
  A 0.41 0.41 0.0 0 1 152.18 25.47
  Q 154.00 25.20 156.35 25.33
  A 0.55 0.55 0.0 0 1 156.52 26.39
  L 155.31 26.86
  A 0.44 0.44 0.0 0 0 155.06 27.11
  L 149.51 41.34
  A 0.54 0.54 0.0 0 1 148.50 41.34
  L 144.33 30.62
  A 0.27 0.27 0.0 0 0 143.82 30.62
  L 139.67 41.27
  A 0.61 0.60 -37.0 0 1 138.50 41.11
  Q 138.37 39.77 137.82 38.71
  Q 137.48 38.06 133.33 27.82
  Q 132.84 26.62 131.54 26.08
  A 0.34 0.34 0.0 0 1 131.67 25.42
  L 138.23 25.42
  A 0.42 0.41 -90.0 0 1 138.64 25.84
  L 138.64 26.17
  A 0.26 0.25 -0.0 0 1 138.38 26.42
  Q 137.59 26.42 137.17 26.62
  A 0.51 0.50 -23.0 0 0 136.91 27.26
  L 140.38 36.16
  A 0.10 0.10 0.0 0 0 140.54 36.21
  Q 141.40 35.52 141.39 34.81
  Q 141.38 33.95 141.67 33.22
  Q 143.83 27.93 144.51 25.71
  A 0.68 0.68 0.0 0 1 145.77 25.62
  Q 146.63 27.44 149.26 33.81
  Q 149.58 34.58 149.63 35.32
  Q 149.70 36.46 149.73 36.49
  A 0.44 0.44 0.0 0 0 150.44 36.42
  Z"
/>
<path fill="#36c3b8" d="
  M 250.82 25.35
  L 257.09 25.45
  A 0.30 0.20 -19.1 0 1 257.24 25.49
  Q 257.57 25.70 257.43 26.01
  Q 257.33 26.25 257.29 26.25
  Q 256.87 26.27 256.59 26.36
  A 0.65 0.64 70.4 0 0 256.19 27.21
  L 259.64 36.07
  A 0.67 0.67 0.0 0 0 260.89 36.08
  L 264.20 27.57
  A 0.80 0.80 0.0 0 0 264.03 26.72
  L 263.24 25.93
  A 0.36 0.36 0.0 0 1 263.50 25.32
  L 267.00 25.32
  A 0.45 0.45 0.0 0 1 267.18 26.19
  Q 266.11 26.63 265.33 28.09
  Q 264.78 29.12 258.07 45.59
  Q 257.03 48.15 254.49 49.25
  A 1.62 1.58 -52.7 0 1 253.62 49.38
  C 250.69 49.05 250.26 45.55 253.46 45.05
  A 1.13 1.13 0.0 0 1 254.77 46.16
  L 254.77 47.28
  A 0.56 0.56 0.0 0 0 255.76 47.65
  Q 257.51 45.65 258.35 42.31
  A 2.88 2.88 0.0 0 0 258.20 40.46
  Q 254.79 32.64 252.35 27.85
  Q 251.78 26.75 250.63 25.88
  A 0.30 0.29 -25.5 0 1 250.82 25.35
  Z"
/>
<path fill="#36c3b8" d="
  M 289.20 40.86
  A 0.34 0.34 0.0 0 1 289.08 41.51
  L 282.68 41.51
  A 0.45 0.45 0.0 0 1 282.59 40.62
  Q 283.36 40.46 283.61 40.30
  A 0.82 0.81 -15.7 0 0 284.01 39.60
  L 284.12 27.47
  A 0.75 0.74 13.9 0 0 283.72 26.81
  Q 282.92 26.41 282.46 26.29
  A 0.43 0.43 0.0 0 1 282.58 25.45
  L 286.86 25.45
  A 0.62 0.62 0.0 0 1 287.48 26.07
  L 287.48 39.69
  A 0.72 0.72 0.0 0 0 287.94 40.36
  L 289.20 40.86
  Z"
/>
<path fill="#f9fbfb" d="
  M 25.09 37.07
  L 25.78 36.80
  A 0.29 0.29 0.0 0 1 26.17 37.03
  Q 26.82 41.68 28.40 44.15
  C 32.70 50.87 41.49 54.95 49.53 53.26
  C 57.65 51.55 64.04 45.65 65.41 37.39
  A 1.10 1.09 4.6 0 1 66.49 36.48
  L 73.22 36.47
  A 0.63 0.62 -81.5 0 1 73.82 37.29
  C 73.57 38.08 73.50 40.31 73.24 41.16
  C 68.67 55.94 54.20 64.34 39.50 58.19
  Q 33.16 55.55 29.45 49.84
  Q 25.79 44.21 25.02 37.17
  A 0.12 0.11 -12.6 0 1 25.09 37.07
  Z"
/>
<path fill="#bac5c3" fill-opacity="0.996" d="
  M 256.65 57.11
  Q 256.64 57.76 255.56 57.77
  A 0.77 0.77 0.0 0 0 254.79 58.54
  L 254.79 58.87
  A 0.55 0.55 0.0 0 0 255.34 59.42
  L 256.90 59.42
  A 0.37 0.37 0.0 0 1 256.98 60.16
  Q 255.46 60.49 254.34 60.03
  A 1.10 1.09 -78.7 0 1 253.67 59.02
  L 253.67 55.86
  A 0.91 0.89 77.8 0 1 254.19 55.04
  Q 255.46 54.44 256.66 54.65
  A 0.40 0.39 -84.8 0 1 256.98 55.04
  L 256.98 55.33
  A 0.34 0.34 0.0 0 1 256.64 55.67
  L 255.43 55.67
  A 0.49 0.49 0.0 0 0 254.94 56.16
  L 254.94 56.45
  A 0.33 0.32 83.1 0 0 255.34 56.77
  Q 255.97 56.61 256.24 56.64
  A 0.47 0.46 4.1 0 1 256.65 57.11
  Z"
/>
<path fill="#bac5c3" fill-opacity="0.996" d="
  M 158.64 60.14
  A 0.83 0.83 0.0 0 1 157.71 59.42
  L 157.39 56.93
  A 1.98 1.91 82.6 0 1 159.03 54.72
  L 159.07 54.72
  A 1.98 1.91 82.6 0 1 161.22 56.44
  L 161.54 58.93
  A 0.83 0.83 0.0 0 1 160.82 59.86
  L 158.64 60.14
  Z
  M 158.80 55.87
  Q 158.73 56.39 158.90 56.60
  A 0.73 0.64 25.6 0 0 160.16 56.24
  Q 160.13 55.95 159.45 55.57
  A 0.44 0.43 19.3 0 0 158.80 55.87
  Z
  M 160.21 59.15
  Q 160.48 58.65 159.86 57.86
  A 0.68 0.57 37.1 0 0 158.75 57.91
  Q 158.54 58.63 158.58 59.00
  A 0.91 0.80 -36.3 0 0 160.21 59.15
  Z"
/>
<path fill="#bac5c3" fill-opacity="0.996" d="
  M 189.60 58.87
  Q 189.52 59.97 188.77 59.75
  A 0.40 0.39 -82.3 0 1 188.49 59.37
  L 188.49 56.05
  A 1.19 1.19 0.0 0 1 189.14 54.99
  Q 190.83 54.12 192.53 55.90
  A 0.56 0.55 50.1 0 1 192.46 56.73
  Q 190.91 57.85 192.32 59.17
  A 0.46 0.46 0.0 0 1 192.01 59.97
  Q 191.82 59.98 190.49 58.55
  A 0.52 0.51 -64.5 0 0 189.60 58.87
  Z
  M 190.09 57.44
  Q 190.79 57.40 191.10 56.86
  A 1.00 0.94 0.3 0 0 189.76 55.58
  Q 189.49 55.71 189.71 57.13
  A 0.37 0.36 83.9 0 0 190.09 57.44
  Z"
/>
<path fill="#bac5c3" fill-opacity="0.996" d="
  M 220.48 57.63
  Q 220.56 57.57 220.15 56.86
  Q 220.02 56.64 221.11 56.70
  Q 221.68 56.74 221.53 57.44
  Q 221.37 58.21 220.75 58.11
  Q 220.01 58.00 219.92 58.26
  Q 219.75 58.74 219.82 58.99
  A 0.49 0.48 85.1 0 0 220.26 59.37
  L 221.99 59.49
  A 0.31 0.30 39.5 0 1 222.05 60.09
  Q 220.64 60.45 219.29 59.76
  A 0.89 0.89 0.0 0 1 218.81 58.97
  L 218.81 56.13
  A 0.91 0.90 72.5 0 1 219.19 55.39
  Q 220.61 54.39 222.13 54.82
  A 0.35 0.35 0.0 0 1 222.22 55.46
  Q 221.81 55.72 221.32 55.57
  Q 220.86 55.42 220.60 55.65
  Q 219.78 56.34 219.80 57.30
  A 0.42 0.42 0.0 0 0 220.48 57.63
  Z"
/>
<path fill="#bac5c3" fill-opacity="0.996" d="
  M 260.79 58.78
  Q 260.70 59.85 259.96 59.63
  A 0.39 0.38 -81.4 0 1 259.69 59.25
  L 259.74 56.00
  A 1.17 1.16 77.4 0 1 260.39 54.97
  Q 262.06 54.14 263.70 55.91
  A 0.54 0.54 0.0 0 1 263.62 56.72
  Q 262.09 57.79 263.45 59.11
  A 0.45 0.45 0.0 0 1 263.14 59.89
  Q 262.95 59.90 261.67 58.47
  A 0.51 0.50 -63.7 0 0 260.79 58.78
  Z
  M 261.31 57.41
  Q 262.20 56.80 262.28 56.37
  A 0.73 0.68 -28.2 0 0 260.93 56.02
  Q 260.78 56.31 260.79 57.14
  A 0.33 0.33 0.0 0 0 261.31 57.41
  Z"
/>
<path fill="#bac5c3" fill-opacity="0.996" d="
  M 138.75 57.52
  A 2.63 2.63 0.0 0 1 136.12 60.15
  A 2.63 2.63 0.0 0 1 133.49 57.52
  A 2.63 2.63 0.0 0 1 136.12 54.89
  A 2.63 2.63 0.0 0 1 138.75 57.52
  Z
  M 136.0707 55.7201
  A 1.84 1.45 -90.6 0 0 134.6401 57.5752
  A 1.84 1.45 -90.6 0 0 136.1093 59.3999
  A 1.84 1.45 -90.6 0 0 137.5399 57.5448
  A 1.84 1.45 -90.6 0 0 136.0707 55.7201
  Z"
/>
<path fill="#bac5c3" fill-opacity="0.996" d="
  M 149.99 56.67
  A 0.45 0.45 0.0 0 1 150.39 57.13
  Q 150.37 57.76 149.32 57.76
  A 0.75 0.75 0.0 0 0 148.57 58.51
  L 148.57 58.83
  A 0.54 0.54 0.0 0 0 149.10 59.37
  L 150.62 59.38
  A 0.36 0.36 0.0 0 1 150.69 60.10
  Q 149.21 60.41 148.12 59.96
  A 1.07 1.06 -78.5 0 1 147.48 58.97
  L 147.49 55.90
  A 0.88 0.87 78.0 0 1 148.00 55.10
  Q 149.24 54.52 150.40 54.73
  A 0.39 0.38 -84.5 0 1 150.71 55.11
  L 150.71 55.39
  A 0.33 0.33 0.0 0 1 150.38 55.72
  L 149.20 55.72
  A 0.48 0.48 0.0 0 0 148.72 56.19
  L 148.72 56.48
  A 0.32 0.31 83.4 0 0 149.11 56.79
  Q 149.73 56.64 149.99 56.67
  Z"
/>
<path fill="#bac5c3" fill-opacity="0.996" d="
  M 166.45 56.74
  A 0.44 0.44 0.0 0 1 166.81 57.20
  Q 166.77 57.82 165.75 57.76
  A 0.73 0.73 0.0 0 0 164.98 58.44
  L 164.96 58.76
  A 0.52 0.52 0.0 0 0 165.44 59.31
  L 166.91 59.40
  A 0.35 0.35 0.0 0 1 166.95 60.10
  Q 165.50 60.32 164.47 59.82
  A 1.04 1.03 -75.2 0 1 163.89 58.83
  L 164.08 55.85
  A 0.86 0.84 81.3 0 1 164.61 55.11
  Q 165.85 54.62 166.96 54.89
  A 0.38 0.37 -81.2 0 1 167.24 55.27
  L 167.23 55.55
  A 0.32 0.32 0.0 0 1 166.89 55.85
  L 165.75 55.78
  A 0.46 0.46 0.0 0 0 165.26 56.21
  L 165.24 56.48
  A 0.31 0.30 86.6 0 0 165.60 56.81
  Q 166.20 56.69 166.45 56.74
  Z"
/>
<path fill="#bac5c3" fill-opacity="0.996" d="
  M 170.69 54.81
  Q 171.50 55.06 173.46 54.85
  A 0.31 0.31 0.0 0 1 173.59 55.45
  C 172.02 55.99 172.44 58.17 172.44 59.43
  A 0.41 0.40 -88.9 0 1 172.04 59.83
  L 171.77 59.83
  A 0.33 0.33 0.0 0 1 171.44 59.50
  L 171.46 56.84
  A 1.09 1.08 14.9 0 0 170.90 55.88
  Q 170.44 55.63 170.28 55.29
  A 0.35 0.34 85.7 0 1 170.69 54.81
  Z"
/>
<path fill="#bac5c3" fill-opacity="0.996" d="
  M 179.24 54.77
  A 0.35 0.34 -86.7 0 1 179.66 55.25
  Q 179.50 55.59 179.04 55.85
  A 1.09 1.08 -15.8 0 0 178.50 56.81
  L 178.56 59.48
  A 0.33 0.33 0.0 0 1 178.24 59.82
  L 177.97 59.82
  A 0.41 0.40 88.0 0 1 177.56 59.43
  C 177.53 58.17 177.92 55.97 176.34 55.46
  A 0.31 0.31 0.0 0 1 176.46 54.85
  Q 178.43 55.03 179.24 54.77
  Z"
/>
<path fill="#bac5c3" fill-opacity="0.996" d="
  M 184.74 56.65
  A 0.46 0.45 4.1 0 1 185.14 57.11
  Q 185.13 57.75 184.07 57.76
  A 0.76 0.76 0.0 0 0 183.31 58.51
  L 183.31 58.83
  A 0.54 0.54 0.0 0 0 183.85 59.37
  L 185.38 59.38
  A 0.37 0.37 0.0 0 1 185.46 60.10
  Q 183.97 60.43 182.87 59.97
  A 1.08 1.07 -78.7 0 1 182.21 58.98
  L 182.21 55.88
  A 0.89 0.88 77.8 0 1 182.72 55.07
  Q 183.97 54.49 185.15 54.69
  A 0.39 0.39 0.0 0 1 185.46 55.08
  L 185.46 55.36
  A 0.33 0.33 0.0 0 1 185.13 55.69
  L 183.94 55.69
  A 0.48 0.48 0.0 0 0 183.46 56.17
  L 183.46 56.46
  A 0.32 0.32 0.0 0 0 183.85 56.77
  Q 184.47 56.62 184.74 56.65
  Z"
/>
<path fill="#bac5c3" fill-opacity="0.996" d="
  M 232.8356 58.8435
  A 1.36 1.36 0.0 0 1 231.5019 60.2293
  L 230.4421 60.2497
  A 1.36 1.36 0.0 0 1 229.0563 58.9160
  L 229.0044 56.2165
  A 1.36 1.36 0.0 0 1 230.3381 54.8307
  L 231.3979 54.8103
  A 1.36 1.36 0.0 0 1 232.7837 56.1440
  L 232.8356 58.8435
  Z
  M 231.5748 55.9172
  A 0.75 0.58 -14.9 0 0 230.7009 55.5495
  A 0.75 0.58 -14.9 0 0 230.1252 56.3028
  A 0.75 0.58 -14.9 0 0 230.9991 56.6705
  A 0.75 0.58 -14.9 0 0 231.5748 55.9172
  Z
  M 230.30 57.96
  Q 229.70 58.86 230.60 59.44
  A 0.85 0.85 0.0 0 0 231.80 58.29
  Q 231.74 58.18 231.46 57.98
  Q 230.41 57.44 230.30 57.96
  Z"
/>
<path fill="#bac5c3" fill-opacity="0.996" d="
  M 237.85 56.76
  A 0.45 0.45 0.0 0 1 238.23 57.23
  Q 238.20 57.86 237.16 57.83
  A 0.74 0.74 0.0 0 0 236.39 58.55
  L 236.38 58.87
  A 0.53 0.53 0.0 0 0 236.89 59.42
  L 238.40 59.47
  A 0.36 0.36 0.0 0 1 238.45 60.19
  Q 236.97 60.46 235.90 59.98
  A 1.06 1.05 -76.8 0 1 235.29 58.98
  L 235.39 55.93
  A 0.88 0.86 79.7 0 1 235.92 55.15
  Q 237.17 54.61 238.32 54.85
  A 0.38 0.38 0.0 0 1 238.62 55.24
  L 238.61 55.52
  A 0.33 0.33 0.0 0 1 238.27 55.84
  L 237.10 55.80
  A 0.47 0.47 0.0 0 0 236.61 56.26
  L 236.60 56.54
  A 0.32 0.31 85.1 0 0 236.98 56.86
  Q 237.59 56.73 237.85 56.76
  Z"
/>
<path fill="#bac5c3" fill-opacity="0.996" d="
  M 244.97 55.17
  Q 244.80 55.52 244.32 55.78
  A 1.12 1.12 0.0 0 0 243.74 56.76
  L 243.74 59.51
  A 0.34 0.34 0.0 0 1 243.40 59.85
  L 243.12 59.85
  A 0.42 0.41 89.3 0 1 242.71 59.44
  C 242.71 58.13 243.16 55.88 241.54 55.31
  A 0.32 0.32 0.0 0 1 241.68 54.69
  Q 243.71 54.92 244.55 54.67
  A 0.36 0.35 -85.4 0 1 244.97 55.17
  Z"
/>
<path fill="#bac5c3" fill-opacity="0.996" d="
  M 250.37 54.88
  A 0.34 0.34 0.0 0 1 250.76 55.36
  Q 250.59 55.69 250.13 55.93
  A 1.07 1.07 0.0 0 0 249.56 56.86
  L 249.51 59.48
  A 0.32 0.32 0.0 0 1 249.18 59.80
  L 248.91 59.80
  A 0.40 0.39 -89.6 0 1 248.53 59.40
  C 248.55 58.15 249.02 56.01 247.49 55.43
  A 0.31 0.30 59.0 0 1 247.63 54.84
  Q 249.57 55.10 250.37 54.88
  Z"
/>
<path fill="#bac5c3" fill-opacity="0.996" d="
  M 145.25 55.54
  L 143.66 59.61
  A 0.78 0.78 0.0 0 1 142.21 59.61
  L 140.67 55.65
  A 0.25 0.25 0.0 0 1 140.81 55.33
  L 141.08 55.23
  A 0.46 0.45 61.6 0 1 141.63 55.40
  Q 142.49 56.65 142.65 58.00
  A 0.36 0.36 0.0 0 0 143.26 58.22
  Q 143.62 57.88 143.71 56.91
  Q 143.81 55.86 144.09 55.67
  Q 144.56 55.36 144.91 55.21
  A 0.26 0.26 0.0 0 1 145.25 55.54
  Z"
/>
<path fill="#bac5c3" fill-opacity="0.996" d="
  M 130.70 59.54
  Q 130.48 59.44 130.31 59.34
  A 0.30 0.30 0.0 0 1 130.32 58.81
  Q 130.66 58.63 130.73 58.37
  A 0.68 0.55 -89.7 0 0 130.06 57.53
  Q 129.07 57.86 129.26 58.82
  A 0.58 0.57 -61.2 0 1 128.16 59.14
  L 127.46 57.34
  A 0.42 0.42 0.0 0 0 126.65 57.49
  L 126.65 59.39
  A 0.25 0.24 0.0 0 1 126.40 59.63
  L 126.13 59.63
  A 0.14 0.14 0.0 0 1 125.99 59.49
  L 125.99 55.77
  A 0.71 0.71 0.0 0 1 127.37 55.51
  L 128.03 57.20
  A 0.61 0.61 0.0 0 0 129.11 57.32
  Q 129.49 56.76 129.60 56.05
  A 0.91 0.91 0.0 0 1 130.50 55.27
  L 130.85 55.27
  A 0.46 0.45 90.0 0 1 131.30 55.73
  L 131.30 59.17
  A 0.42 0.41 13.0 0 1 130.70 59.54
  Z"
/>
<path fill="#bac5c3" fill-opacity="0.996" d="
  M 205.68 59.46
  A 0.34 0.34 0.0 0 1 205.61 60.11
  Q 203.94 60.43 203.07 59.86
  A 0.98 0.98 0.0 0 1 202.63 59.04
  L 202.63 55.48
  A 0.29 0.29 0.0 0 1 202.92 55.19
  L 203.19 55.19
  A 0.43 0.42 -90.0 0 1 203.61 55.62
  L 203.61 58.93
  A 0.47 0.46 -2.3 0 0 204.12 59.39
  Q 205.26 59.28 205.68 59.46
  Z"
/>
<rect fill="#bac5c3" fill-opacity="0.996" x="-0.58" y="-2.29" transform="translate(209.13,57.45) rotate(0.7)" width="1.16" height="4.58" rx="0.49"/>
<path fill="#bac5c3" fill-opacity="0.996" d="
  M 212.47 55.30
  Q 213.77 55.78 213.68 57.50
  A 0.58 0.58 0.0 0 0 214.80 57.75
  L 215.68 55.49
  A 0.43 0.43 0.0 0 1 216.24 55.25
  L 216.53 55.36
  A 0.32 0.32 0.0 0 1 216.70 55.81
  L 214.70 59.58
  A 0.65 0.65 0.0 0 1 213.52 59.51
  L 212.05 55.72
  A 0.33 0.32 -0.3 0 1 212.47 55.30
  Z"
/>
<path fill="#36c3b8" d="
  M 231.46 57.98
  Q 230.88 57.82 230.30 57.96
  Q 230.41 57.44 231.46 57.98
  Z"
/>
<path fill="#bac5c3" fill-opacity="0.996" d="
  M 195.58 59.33
  Q 195.79 59.25 195.88 59.26
  A 0.21 0.21 0.0 0 1 195.92 59.67
  L 195.68 59.72
  A 0.20 0.20 0.0 0 1 195.58 59.33
  Z"
/>
<path fill="#36c3b8" d="
  M 265.88 59.72
  Q 265.75 59.22 266.20 59.32
  A 0.33 0.32 -39.5 0 1 266.13 59.96
  Q 265.95 59.97 265.88 59.72
  Z"
/>
</svg>
